<?xml version="1.0" standalone="no"?>
<!DOCTYPE svg PUBLIC "-//W3C//DTD SVG 20010904//EN"
 "http://www.w3.org/TR/2001/REC-SVG-20010904/DTD/svg10.dtd">
<svg version="1.0" xmlns="http://www.w3.org/2000/svg"
 width="1920.000000pt" height="997.000000pt" viewBox="0 0 1920.000000 997.000000"
 preserveAspectRatio="xMidYMid meet">

<g transform="translate(0.000000,997.000000) scale(0.100000,-0.100000)"
fill="#000000" stroke="none">
<path d="M0 4985 l0 -4985 2715 0 c1493 0 2715 3 2715 8 -1 12 -27 42 -32 37
-3 -3 -13 7 -22 22 l-17 28 20 -23 c11 -13 22 -18 26 -12 3 5 1 10 -5 10 -6 0
-8 6 -4 12 4 7 4 10 -1 6 -4 -4 -14 -3 -21 3 -11 9 -16 6 -22 -11 -7 -20 -10
-21 -15 -7 -4 10 -3 17 2 17 4 0 8 6 8 14 0 8 -17 20 -38 26 -23 8 -36 17 -32
24 4 6 -1 5 -10 -3 -19 -15 -23 -1 -5 17 9 9 9 15 -1 24 -11 10 -13 10 -7 1 4
-8 1 -13 -8 -13 -9 0 -15 3 -15 7 3 19 -2 27 -10 15 -6 -10 -11 -9 -22 4 -12
16 -12 17 1 9 12 -7 13 -6 3 7 -7 8 -10 17 -7 20 3 3 -3 5 -13 5 -9 -1 -18 3
-18 10 0 14 -25 42 -25 28 0 -4 -9 0 -20 10 -20 18 -21 18 -14 0 6 -16 4 -15
-15 4 -12 12 -20 25 -17 29 2 4 -2 16 -10 27 -15 19 -15 19 -10 -6 4 -27 -13
-35 -31 -14 -4 4 -2 5 5 1 6 -4 12 -3 12 2 0 11 -32 40 -35 32 -4 -14 -63 55
-58 69 4 14 3 14 -9 -1 -13 -15 -15 -15 -27 4 -9 15 -9 18 0 13 7 -5 10 -3 7
6 -3 8 -15 13 -29 11 -19 -2 -21 -1 -9 7 15 10 11 13 -20 15 -8 1 -14 9 -12
19 2 9 -3 17 -11 17 -9 0 -13 10 -12 29 2 27 0 28 -26 21 -23 -7 -27 -6 -22 7
5 13 1 15 -15 11 -12 -3 -21 -3 -20 1 3 13 -17 47 -34 59 -12 9 -17 21 -13 35
2 12 2 16 -1 10 -6 -14 -25 -18 -23 -5 3 20 -3 23 -18 11 -15 -12 -16 -12 -11
2 4 9 1 22 -5 28 -8 8 -7 11 3 11 7 0 11 2 8 5 -3 3 -17 1 -32 -5 -18 -6 -25
-6 -21 0 3 5 8 19 10 29 3 15 -1 19 -15 16 -10 -2 -21 3 -24 11 -3 8 -13 14
-21 14 -9 0 -13 4 -10 10 3 5 -2 10 -12 11 -11 0 -13 3 -5 6 10 4 10 8 1 19
-6 8 -15 11 -20 8 -5 -3 -9 0 -9 6 0 6 -5 8 -10 5 -6 -3 -10 -1 -10 5 0 6 -5
8 -12 4 -9 -5 -8 -2 1 9 13 17 15 17 35 0 l21 -18 -19 23 c-11 12 -25 21 -32
20 -7 -2 -13 0 -13 5 -2 22 0 27 11 21 7 -5 8 -3 3 5 -5 9 -10 10 -18 2 -18
-18 -31 -13 -16 6 8 9 9 14 3 10 -7 -4 -14 0 -18 8 -3 8 -12 15 -21 15 -10 0
-15 10 -15 29 0 17 -6 33 -12 37 -7 4 -10 4 -6 -1 4 -4 3 -14 -3 -22 -9 -10
-8 -17 2 -30 13 -16 12 -17 -4 -4 -10 8 -16 20 -13 27 3 7 -2 18 -10 24 -19
17 -18 31 4 24 13 -5 14 -4 3 4 -8 6 -20 8 -27 5 -7 -2 -11 3 -11 14 1 12 -5
18 -18 18 -11 0 -21 8 -23 17 -2 11 -9 15 -20 11 -14 -5 -13 -3 2 9 17 14 18
15 2 21 -10 4 -22 4 -27 1 -12 -7 -7 19 4 27 5 3 2 9 -7 12 -9 4 -16 1 -16 -6
0 -7 -5 -4 -11 6 -13 22 -1 45 13 26 8 -11 9 -11 5 1 -2 8 -12 14 -21 12 -9
-2 -15 3 -14 10 2 6 -3 12 -11 13 -8 0 -16 7 -18 15 -4 12 -3 12 5 2 7 -11 10
-11 15 2 4 9 -1 17 -14 21 -11 4 -16 11 -12 18 3 7 -4 3 -16 -8 l-22 -19 11
28 c9 26 9 27 -5 16 -11 -9 -15 -9 -15 -1 0 7 -4 10 -9 7 -5 -4 -7 2 -4 13 3
10 -1 22 -8 26 -8 6 -10 4 -4 -5 5 -9 4 -11 -3 -6 -7 4 -12 16 -12 26 0 10 -5
22 -11 26 -8 4 -7 9 2 16 10 6 6 7 -10 3 -22 -7 -23 -5 -17 19 3 14 3 26 -1
25 -17 -3 -36 1 -31 7 10 10 -38 89 -55 89 -8 0 -19 4 -23 8 -4 4 -2 7 4 7 7
0 12 4 12 9 0 5 -8 8 -17 7 -10 0 -19 6 -19 14 -1 8 -2 21 -3 29 -1 8 -7 11
-17 7 -14 -5 -15 -4 -5 8 8 10 9 16 1 21 -5 3 -10 1 -10 -4 0 -6 -4 -11 -10
-11 -6 0 -5 10 2 25 12 27 2 48 -12 25 -5 -8 -12 -11 -16 -8 -3 4 1 14 10 23
20 20 20 32 1 32 -8 0 -12 -5 -9 -11 3 -6 -1 -3 -9 7 -9 10 -24 25 -34 34 -10
8 -12 11 -5 8 11 -6 11 -3 0 14 -7 12 -16 21 -20 21 -5 0 -8 7 -8 15 0 13 4
14 23 4 20 -10 21 -10 6 5 -12 13 -21 15 -41 7 -22 -8 -25 -7 -24 12 1 12 -2
28 -7 35 -6 8 -5 12 3 12 10 0 10 3 0 15 -7 8 -17 12 -24 8 -6 -4 -3 5 7 21
18 27 18 27 -2 17 -17 -10 -20 -9 -14 5 4 12 3 15 -6 10 -7 -5 -10 -2 -9 6 2
7 -5 12 -15 12 -14 -2 -15 1 -6 12 9 11 9 14 -1 14 -7 0 -10 7 -6 15 3 9 0 15
-10 15 -16 0 -16 30 1 42 6 5 4 8 -5 8 -13 0 -13 1 0 11 12 8 10 9 -7 4 -14
-4 -23 -2 -23 4 0 6 -7 11 -16 11 -8 0 -12 5 -9 11 4 6 -1 17 -11 25 -18 13
-18 14 1 8 18 -5 18 -4 2 6 -9 6 -22 8 -29 4 -7 -4 -8 -3 -4 4 4 7 2 12 -3 12
-6 0 -11 7 -11 15 0 8 4 15 9 15 6 0 9 8 8 18 0 10 -7 19 -14 19 -17 0 -17
-14 0 -20 7 -3 5 -6 -5 -6 -20 -1 -23 16 -9 38 7 11 2 22 -16 38 -21 20 -23
26 -11 40 12 15 10 15 -13 0 -21 -14 -26 -15 -26 -2 0 8 5 11 11 8 6 -4 5 0
-1 8 -9 11 -9 19 -2 26 7 7 5 12 -6 17 -10 4 -14 2 -9 -6 4 -6 3 -8 -4 -5 -5
4 -8 16 -5 26 3 10 -1 22 -8 26 -8 6 -10 4 -4 -5 5 -9 4 -11 -4 -6 -9 6 -9 13
3 30 14 22 13 23 -11 18 -18 -3 -24 -1 -19 7 4 6 4 17 -1 24 -4 6 -8 15 -9 20
-1 4 -2 10 -3 15 -1 4 -5 1 -10 -7 -7 -10 -9 -7 -8 12 2 21 5 23 17 14 8 -6 2
2 -13 17 -28 28 -31 50 -3 27 12 -10 14 -9 12 6 -2 11 -10 17 -22 15 -16 -3
-16 -2 -3 14 13 16 12 16 -11 4 -23 -12 -24 -12 -11 3 12 15 11 17 -3 17 -13
0 -16 5 -11 20 4 12 1 28 -7 37 -10 12 -10 17 -1 20 17 6 -27 50 -47 48 -8 -1
-10 0 -3 2 18 6 25 35 12 47 -9 8 -10 7 -4 -4 4 -8 -1 -6 -12 5 -22 22 -26 45
-8 45 6 0 11 9 11 21 0 17 -2 18 -11 5 -7 -9 -16 -11 -25 -6 -11 7 -11 11 -1
24 10 12 9 18 -8 35 -32 32 -55 71 -42 71 7 0 11 8 9 18 -1 9 2 24 7 32 7 13
6 13 -7 2 -10 -8 -14 -21 -11 -30 4 -10 2 -13 -3 -9 -5 5 -9 21 -10 37 -3 51
-15 100 -24 100 -6 0 -19 8 -29 17 -20 17 -19 33 2 33 9 0 9 -2 0 -8 -9 -6 -7
-11 8 -20 19 -12 19 -12 4 24 -8 20 -15 38 -15 41 0 2 -4 2 -9 -1 -5 -4 -7 3
-4 14 4 15 0 20 -13 20 -15 0 -16 2 -5 9 12 8 12 12 2 25 -11 13 -11 16 0 16
8 0 5 7 -8 20 -14 13 -20 27 -16 42 3 16 2 19 -5 10 -7 -11 -10 -11 -15 3 -4
9 -3 13 2 10 5 -3 12 -1 15 4 3 5 -1 12 -10 15 -13 5 -14 9 -5 20 8 10 9 16 1
21 -6 3 -8 11 -5 16 3 5 0 6 -8 3 -8 -3 -17 2 -21 11 -3 9 -2 13 4 10 6 -3 10
-1 10 4 0 6 -6 11 -12 11 -8 0 -9 3 -3 8 17 12 17 42 0 42 -12 0 -15 6 -10 20
5 15 2 18 -15 15 -11 -2 -18 0 -15 6 4 5 11 7 16 4 5 -4 9 1 9 9 0 23 -4 31
-12 29 -5 -2 -8 2 -8 8 0 5 -4 7 -10 4 -5 -3 -10 -2 -10 3 0 6 6 12 14 15 22
9 8 47 -18 48 -19 1 -19 2 4 9 14 4 19 8 12 9 -7 1 -20 7 -27 15 -12 12 -11
15 5 19 13 3 18 11 14 21 -3 9 -11 13 -16 10 -6 -4 -5 -10 3 -16 11 -8 11 -9
-1 -5 -8 2 -13 11 -11 18 2 8 4 20 4 27 0 6 5 12 11 12 6 0 4 5 -4 10 -8 5
-11 10 -7 10 5 0 1 7 -8 16 -9 10 -14 26 -12 36 4 14 2 17 -7 9 -10 -8 -12 -5
-11 11 1 12 8 24 16 26 11 3 11 1 -1 -7 -9 -7 -10 -11 -3 -11 20 0 24 18 6 28
-14 9 -15 12 -4 26 8 9 11 19 7 23 -3 3 -6 1 -6 -6 0 -7 -4 -9 -10 -6 -5 3
-10 1 -10 -6 0 -7 -3 -9 -7 -6 -3 4 2 16 12 27 15 17 16 20 3 15 -13 -5 -16
-1 -14 19 2 14 -2 26 -8 26 -6 0 -4 5 4 10 8 5 11 10 6 10 -5 0 -3 6 3 14 9
10 7 17 -6 27 -11 9 -14 10 -9 2 4 -8 2 -13 -4 -13 -7 0 -9 8 -5 20 4 11 2 20
-4 20 -6 0 -11 8 -11 18 0 13 2 14 9 3 7 -11 9 -11 13 0 3 8 -1 20 -9 27 -7 8
-10 18 -7 24 4 6 8 22 10 35 2 21 -9 29 -38 24 -4 0 -5 6 -1 14 4 12 9 13 19
4 11 -9 14 -9 14 0 0 6 -7 14 -15 17 -8 4 -12 10 -9 15 3 5 0 9 -6 9 -7 0 -10
12 -8 28 1 15 -2 26 -7 25 -6 -1 -11 12 -11 29 l-1 31 14 -24 c13 -23 13 -22
9 16 -3 22 -5 41 -6 42 0 1 -8 -1 -17 -4 -12 -4 -9 3 10 22 15 15 27 32 27 38
0 6 -6 3 -13 -8 -13 -17 -14 -17 -19 3 -3 12 -3 21 1 20 20 -2 22 4 6 22 -18
20 -18 21 1 15 14 -5 13 -3 -4 7 -12 8 -20 17 -16 21 4 3 1 14 -7 24 -8 9 -9
14 -3 10 7 -4 17 0 24 8 11 13 10 14 -2 10 -9 -4 -18 0 -21 9 -4 11 -1 13 10
9 13 -5 13 -2 -2 20 -18 27 -14 35 8 17 103 -83 175 -146 413 -366 518 -478
644 -597 644 -604 0 -4 -9 -10 -21 -13 -18 -5 -19 -8 -7 -28 20 -36 37 -51 48
-44 6 4 22 -1 37 -10 21 -14 29 -15 48 -5 17 9 28 9 43 1 26 -14 37 1 20 28
-13 21 -11 23 224 326 43 55 78 108 78 117 0 9 -10 20 -22 24 -23 7 -38 19
-113 89 -23 22 -53 48 -66 57 l-24 17 25 1 c17 0 41 15 68 43 50 51 53 45 -53
110 -17 10 -105 61 -197 113 l-168 95 -52 -51 c-29 -27 -56 -50 -60 -50 -15 0
-8 -25 10 -36 9 -6 76 -49 147 -94 72 -46 167 -105 212 -132 46 -27 83 -52 83
-56 0 -4 -16 -38 -36 -75 -23 -43 -40 -65 -47 -60 -30 18 -901 651 -1052 764
-229 172 -234 177 -213 190 9 5 15 16 12 24 -4 8 -10 12 -15 9 -5 -3 -6 3 -2
12 4 12 3 15 -5 10 -8 -5 -10 -2 -6 8 3 9 9 14 13 12 4 -3 8 5 8 17 2 16 0 18
-6 8 -6 -9 -10 2 -12 33 -3 32 -1 45 8 42 8 -3 9 4 2 27 -5 18 -9 33 -9 35 0
2 -4 0 -10 -3 -18 -11 -11 4 12 25 12 11 18 20 14 20 -5 0 -3 7 4 15 10 12 9
15 -4 15 -10 0 -14 -4 -11 -10 3 -5 1 -10 -5 -10 -11 0 -4 41 12 74 6 10 6 21
2 25 -12 8 -11 34 1 44 6 5 -1 6 -15 3 -24 -5 -24 -4 -6 9 11 8 24 15 30 15 5
0 1 7 -10 15 -13 10 -14 14 -5 15 9 0 10 4 4 13 -17 21 -24 49 -11 41 8 -5 9
-2 5 9 -3 9 -2 19 3 22 7 4 6 13 0 25 -9 16 -8 19 7 14 10 -3 7 2 -7 10 -25
15 -25 15 -2 16 12 0 22 5 22 10 0 6 -7 10 -16 8 -10 -2 -19 3 -22 11 -3 10 0
11 9 5 12 -6 12 -5 1 8 -10 13 -10 17 3 22 8 3 15 13 15 22 0 10 -5 14 -15 10
-8 -3 -15 -3 -15 0 0 2 11 8 23 13 13 5 24 16 24 25 0 19 -8 20 -27 3 -8 -6
-4 0 9 16 20 22 22 27 8 27 -9 0 -17 4 -17 10 0 5 7 7 15 4 10 -4 15 0 15 15
0 12 -5 21 -11 21 -5 0 -7 -6 -3 -12 4 -7 3 -10 -1 -5 -14 12 -13 46 2 51 10
4 11 11 4 25 -11 19 -6 31 13 31 6 0 4 -5 -4 -11 -12 -8 -12 -10 -1 -7 8 2 16
15 18 27 3 20 1 22 -11 12 -11 -9 -16 -9 -22 0 -4 7 -3 9 3 6 12 -8 28 57 18
73 -7 12 13 16 158 29 64 6 147 18 185 27 343 77 639 279 826 564 207 314 263
722 147 1077 -81 249 -235 463 -461 644 -73 58 -86 73 -85 97 0 24 4 28 20 25
15 -4 16 -2 7 5 -11 7 -10 11 4 16 16 6 16 8 4 16 -11 7 -12 10 -2 10 7 0 10
4 7 10 -4 6 1 7 11 3 10 -3 15 -2 12 3 -5 9 27 46 34 39 2 -2 5 5 5 17 2 18 1
18 -10 4 -9 -11 -16 -13 -27 -6 -11 7 -12 10 -2 10 17 0 51 40 52 60 0 8 9 21
20 28 11 7 20 22 21 35 0 12 3 16 6 10 7 -19 21 -16 19 4 0 10 4 18 11 18 6 0
14 3 17 7 3 5 3 6 0 4 -3 -3 -12 1 -19 7 -10 10 -8 15 12 28 16 11 21 19 14
24 -6 3 -9 11 -5 16 4 6 11 6 20 -2 10 -8 17 -7 29 5 9 9 12 16 6 16 -6 0 -8
8 -5 18 5 14 4 14 -4 2 -6 -8 -9 -17 -6 -21 2 -4 1 -10 -4 -13 -4 -2 -8 9 -7
25 0 23 4 29 22 29 13 0 23 4 23 10 0 5 -6 8 -12 6 -7 -1 -10 -1 -5 1 4 3 5 9
1 14 -8 13 10 11 23 -2 9 -9 11 -5 9 14 -2 15 1 24 5 21 5 -3 12 2 15 10 3 9
11 16 18 16 14 1 51 50 36 50 -5 0 -10 -5 -10 -12 0 -6 -3 -8 -7 -5 -3 4 4 18
16 31 13 14 20 29 17 35 -4 5 -2 12 3 16 5 3 14 -3 20 -12 14 -23 14 -7 1 18
-9 15 -7 19 5 19 9 0 14 4 11 9 -6 9 43 47 56 43 4 -1 6 7 5 18 -1 14 -4 16
-14 8 -8 -6 -16 -8 -20 -4 -3 3 -1 6 5 6 7 0 12 7 12 16 0 8 4 13 9 9 5 -3 12
-1 16 5 4 6 10 8 14 5 5 -2 7 9 6 25 -1 16 1 27 6 24 5 -3 7 -9 4 -14 -3 -5
-1 -12 5 -15 6 -4 10 -3 9 2 -1 4 -1 19 0 33 1 20 3 22 11 10 8 -13 10 -13 10
2 0 9 5 20 12 24 8 5 9 2 5 -10 -4 -10 -3 -15 3 -11 6 3 10 12 10 19 0 7 10
18 23 24 17 8 18 11 5 11 -10 1 -18 8 -18 17 0 10 6 14 15 10 11 -4 15 1 15
19 0 18 4 23 15 18 9 -3 15 -2 14 3 -4 24 2 36 17 30 12 -4 15 -2 10 9 -3 8
-1 15 3 15 5 0 7 10 4 21 -5 16 -2 20 8 17 15 -6 15 -8 5 -48 -5 -22 -4 -21 8
4 7 15 12 39 10 52 -1 13 2 24 8 24 6 0 8 -6 5 -14 -4 -10 0 -12 16 -8 12 3
16 7 10 9 -7 3 -9 11 -6 19 5 13 8 13 15 2 10 -13 7 0 -8 36 -4 11 0 13 15 9
16 -4 20 -2 16 9 -6 14 21 46 39 47 6 0 11 7 12 16 2 13 -230 15 -2192 15
l-2194 0 0 -4985z m3610 3861 c0 -3 -4 -8 -10 -11 -5 -3 -10 -1 -10 4 0 6 5
11 10 11 6 0 10 -2 10 -4z m-463 -183 c-3 -10 -5 -4 -5 12 0 17 2 24 5 18 2
-7 2 -21 0 -30z m-316 -43 c5 0 4 -6 -3 -14 -9 -10 -17 -11 -25 -4 -18 15 -16
31 3 24 9 -3 20 -6 25 -6z m326 -27 c-3 -10 -5 -4 -5 12 0 17 2 24 5 18 2 -7
2 -21 0 -30z m337 26 c-2 -4 4 -7 13 -7 30 3 143 -82 238 -177 173 -173 276
-366 330 -620 22 -99 25 -320 6 -425 -81 -459 -428 -844 -876 -975 -109 -31
-277 -57 -363 -54 -53 2 -62 5 -56 18 4 9 7 31 6 49 0 17 3 32 9 32 5 0 9 5 9
11 0 5 -6 7 -12 3 -10 -6 -10 -4 0 7 6 7 12 18 12 23 0 6 -5 4 -10 -4 -8 -13
-10 -13 -10 2 0 9 4 19 9 23 12 7 11 46 -2 62 -6 9 -4 15 7 19 10 4 15 12 12
19 -2 7 7 24 20 39 19 19 21 26 9 26 -8 0 -15 -5 -15 -12 0 -6 -3 -8 -7 -4 -5
4 1 14 11 22 11 8 21 24 23 35 3 21 3 21 -17 -2 -10 -13 -19 -18 -20 -11 0 6
5 12 10 12 6 0 10 7 10 15 0 8 4 15 9 15 7 0 8 31 1 70 0 3 -5 -2 -11 -10 -9
-13 -10 -13 -6 0 2 8 9 14 15 13 12 -3 25 43 17 57 -4 6 -1 10 5 10 7 0 10 6
7 13 -2 6 3 21 12 31 15 18 15 19 -1 13 -12 -4 -15 -2 -11 9 3 7 10 14 15 14
6 0 7 13 3 32 -6 25 -4 30 8 25 8 -3 18 0 20 7 4 10 -1 12 -16 9 -16 -4 -18
-2 -8 5 8 6 10 15 6 23 -6 8 -4 11 7 7 8 -4 15 0 15 8 0 7 -4 11 -9 8 -4 -3
-8 -1 -8 4 0 16 33 24 42 10 5 -9 8 -8 8 6 0 13 -5 17 -20 13 -23 -6 -27 12
-8 31 10 10 10 15 -2 23 -12 9 -11 10 6 6 13 -3 21 1 21 9 0 7 -4 11 -10 7 -5
-3 -7 5 -5 18 2 13 9 23 16 22 6 -2 12 2 12 7 0 6 -5 10 -11 10 -10 0 -3 40
10 50 3 3 13 14 21 24 13 18 13 19 0 11 -13 -8 -13 -7 -1 8 9 12 10 17 2 17
-7 0 -9 5 -6 10 4 6 10 8 15 5 4 -3 6 4 3 15 -3 11 -1 20 5 20 6 0 9 9 7 19
-2 11 3 27 10 38 16 20 20 37 7 29 -4 -2 -8 5 -9 17 0 12 1 16 4 10 6 -16 33
-17 33 -2 0 5 -4 7 -10 4 -14 -9 -13 8 2 23 9 9 9 12 -1 12 -7 0 -9 5 -6 10 4
6 10 8 15 5 4 -2 10 6 12 20 3 13 0 26 -6 29 -6 2 -3 5 6 5 9 1 20 6 24 13 4
7 3 8 -4 4 -7 -4 -12 -1 -12 8 0 8 -3 23 -6 33 -4 14 -4 15 4 4 8 -11 11 -9
17 8 3 11 13 21 20 21 8 0 17 4 20 10 4 6 -1 7 -12 3 -17 -6 -17 -6 0 14 14
16 15 22 5 25 -11 4 -10 10 1 31 8 15 16 25 19 22 3 -2 -1 -13 -9 -22 -13 -16
-12 -17 3 -5 17 14 44 77 28 67 -5 -3 -11 -1 -15 5 -3 5 0 10 7 10 7 1 1 7
-13 15 -15 8 -35 35 -47 63 -15 33 -50 77 -117 143 -88 85 -134 144 -122 155
2 3 10 -8 16 -25 13 -29 71 -92 71 -76 0 5 -16 36 -36 68 -22 35 -38 75 -40
100 -2 23 -5 52 -7 65 -1 13 -9 29 -17 35 -8 7 -24 24 -35 37 l-20 25 21 -17
c11 -10 26 -18 33 -18 7 0 10 -4 7 -9 -3 -5 1 -14 9 -21 11 -9 15 -9 15 -1 0
7 3 10 8 7 12 -7 45 22 37 33 -4 7 4 11 19 11 24 0 26 4 26 40 0 22 5 40 10
40 6 0 10 -18 10 -40 l0 -40 54 0 c30 0 67 -5 82 -10 26 -10 26 -10 20 22 -3
18 -14 39 -23 46 -15 11 -15 12 -1 12 9 0 20 -10 24 -22 7 -22 8 -21 14 7 4
22 9 5 19 -68 11 -77 11 -103 2 -121 -7 -12 -11 -40 -9 -62 l3 -39 69 -8 c46
-5 73 -4 80 3 8 8 6 9 -6 5 -11 -4 -18 -2 -18 4 0 6 5 11 10 11 6 0 14 8 17
18 4 9 15 25 24 35 17 19 23 67 8 67 -5 0 -9 5 -9 11 0 5 5 7 10 4 6 -3 10 -2
10 4 0 6 7 8 16 4 12 -4 15 -2 12 8 -3 8 -11 13 -17 11 -7 -1 -10 2 -6 8 3 6
11 8 16 5 5 -4 9 -1 9 5 0 7 7 9 16 6 8 -3 13 -2 9 3 -3 5 -2 11 2 14 5 2 3 3
-3 1 -6 -1 -11 4 -11 11 0 7 6 11 14 8 7 -3 13 2 13 11 0 10 -6 13 -17 9 -12
-4 -10 1 7 17 14 12 24 26 23 31 -2 5 2 9 8 9 6 0 9 7 5 15 -7 18 5 19 24 3 8
-7 7 -4 -3 8 -21 25 -21 31 -2 31 8 0 12 -4 9 -8z m-730 -6 c-5 -5 -12 -12
-16 -18 -4 -6 -8 -2 -8 8 0 9 7 17 17 17 9 0 12 -3 7 -7z m140 -1 c3 -5 -8 -6
-25 -4 -16 2 -29 6 -29 8 0 8 49 4 54 -4z m-49 -62 c3 -6 -1 -7 -9 -4 -18 7
-21 14 -7 14 6 0 13 -4 16 -10z m83 3 c-15 -2 -34 -14 -43 -26 -17 -24 -27
-20 -19 9 4 16 14 20 47 21 25 0 31 -1 15 -4z m130 0 c-10 -2 -26 -2 -35 0
-10 3 -2 5 17 5 19 0 27 -2 18 -5z m-148 -43 c0 -5 -2 -10 -4 -10 -3 0 -8 5
-11 10 -3 6 -1 10 4 10 6 0 11 -4 11 -10z m-10 -34 c0 -2 -9 -6 -20 -9 -11 -3
-20 -1 -20 4 0 5 9 9 20 9 11 0 20 -2 20 -4z m-47 -117 c7 -27 -8 -24 -21 6
-9 19 -9 23 2 19 8 -3 16 -14 19 -25z m-154 -105 c2 -2 -3 -4 -11 -4 -9 0 -26
9 -39 20 l-24 21 35 -17 c19 -9 37 -18 39 -20z m365 -374 c51 0 86 -4 86 -10
0 -10 -10 -12 -50 -12 -97 0 -119 3 -141 23 -23 19 -23 20 -2 10 12 -6 60 -11
107 -11z m-214 -1010 c0 -5 -4 -10 -10 -10 -5 0 -10 5 -10 10 0 6 5 10 10 10
6 0 10 -4 10 -10z m-25 -89 c3 -5 2 -12 -3 -15 -5 -3 -9 1 -9 9 0 17 3 19 12
6z m-58 -383 c-3 -8 -6 -5 -6 6 -1 11 2 17 5 13 3 -3 4 -12 1 -19z m-37 -1313
c0 -8 4 -15 10 -15 5 0 7 7 3 16 -8 22 191 -115 757 -519 261 -187 476 -341
478 -342 4 -4 -33 -77 -95 -192 -42 -78 -46 -82 -66 -71 -12 6 -89 75 -172
152 -82 78 -267 252 -410 386 -341 321 -495 472 -495 488 0 6 -3 11 -7 11 -22
-4 -23 3 -2 22 13 11 18 17 10 13 -11 -5 -13 -3 -8 10 4 10 3 15 -3 11 -6 -3
-10 3 -10 15 0 12 -4 18 -10 15 -5 -3 -10 -1 -10 4 0 6 7 11 15 11 8 0 15 -7
15 -15z m-10 -51 c0 -8 -4 -14 -9 -14 -6 0 -9 9 -8 19 1 22 17 18 17 -5z m85
-633 c3 -5 1 -12 -5 -16 -5 -3 -10 1 -10 9 0 18 6 21 15 7z m1315 -30 c0 -5
-11 -16 -25 -25 -25 -16 -25 -16 -13 9 11 24 38 35 38 16z m-220 -531 c8 -5
11 -12 7 -16 -4 -4 -15 0 -24 9 -18 18 -8 23 17 7z m-803 -633 c3 -21 2 -21
-12 -3 -8 10 -12 23 -9 28 8 13 17 2 21 -25z m157 -392 c-4 -8 -10 -12 -15 -9
-11 6 -2 24 11 24 5 0 7 -7 4 -15z m16 -40 c0 -8 -4 -15 -10 -15 -5 0 -7 7 -4
15 4 8 8 15 10 15 2 0 4 -7 4 -15z m200 -430 c0 -5 -5 -3 -10 5 -5 8 -10 20
-10 25 0 6 5 3 10 -5 5 -8 10 -19 10 -25z m116 -200 c-1 -8 -5 -17 -8 -21 -5
-4 -4 16 1 34 3 9 9 -1 7 -13z m18 -60 c3 -8 1 -15 -4 -15 -6 0 -10 7 -10 15
0 8 2 15 4 15 2 0 6 -7 10 -15z m1540 -1822 c-5 -5 -12 -12 -16 -18 -4 -6 -8
-2 -8 8 0 9 7 17 17 17 9 0 12 -3 7 -7z m24 -49 c-4 -3 -12 5 -18 18 -12 22
-12 22 6 6 10 -10 15 -20 12 -24z"/>
<path d="M2996 8468 c5 -7 18 -21 31 -31 13 -10 23 -24 23 -30 0 -7 25 -39 55
-72 l54 -60 0 80 c1 86 -2 96 -36 114 -31 16 -137 15 -127 -1z"/>
<path d="M2909 8440 c-16 -12 -19 -19 -10 -20 8 0 11 -3 8 -7 -9 -9 12 -33 30
-33 8 0 13 7 11 18 -2 9 3 22 11 28 16 12 7 34 -13 34 -8 0 -24 -9 -37 -20z"/>
<path d="M3010 8426 c0 -2 7 -9 15 -16 13 -11 14 -10 9 4 -5 14 -24 23 -24 12z"/>
<path d="M2960 8391 c0 -12 6 -21 16 -21 9 0 14 7 12 17 -5 25 -28 28 -28 4z"/>
<path d="M2880 8386 c0 -18 17 -29 30 -21 8 5 7 11 -1 21 -15 18 -29 18 -29 0z"/>
<path d="M3020 8380 c0 -5 5 -10 11 -10 5 0 7 5 4 10 -3 6 -8 10 -11 10 -2 0
-4 -4 -4 -10z"/>
<path d="M3375 8370 c-3 -5 -1 -10 4 -10 6 0 11 5 11 10 0 6 -2 10 -4 10 -3 0
-8 -4 -11 -10z"/>
<path d="M2912 8349 c2 -7 10 -15 17 -17 8 -3 12 1 9 9 -2 7 -10 15 -17 17 -8
3 -12 -1 -9 -9z"/>
<path d="M2968 8353 c6 -2 18 -2 25 0 6 3 1 5 -13 5 -14 0 -19 -2 -12 -5z"/>
<path d="M3033 8343 c9 -9 19 -14 23 -11 10 10 -6 28 -24 28 -15 0 -15 -1 1
-17z"/>
<path d="M2890 8328 c0 -6 10 -23 23 -37 12 -14 14 -19 5 -12 -21 16 -24 -1
-4 -18 23 -19 31 24 12 54 -17 26 -36 33 -36 13z"/>
<path d="M2973 8333 c9 -2 23 -2 30 0 6 3 -1 5 -18 5 -16 0 -22 -2 -12 -5z"/>
<path d="M2975 8310 c3 -5 20 -10 36 -10 18 0 28 4 24 10 -3 6 -20 10 -36 10
-18 0 -28 -4 -24 -10z"/>
<path d="M3103 8297 c4 -10 7 -23 7 -28 0 -5 7 -9 15 -9 21 0 19 14 -7 36 -20
18 -21 18 -15 1z"/>
<path d="M3014 8275 c11 -8 27 -15 35 -15 13 1 12 4 -3 15 -11 8 -27 15 -35
15 -13 -1 -12 -4 3 -15z"/>
<path d="M2980 8270 c0 -5 5 -10 11 -10 5 0 7 5 4 10 -3 6 -8 10 -11 10 -2 0
-4 -4 -4 -10z"/>
<path d="M3000 8241 c0 -5 5 -13 10 -16 6 -3 10 -2 10 4 0 5 -4 13 -10 16 -5
3 -10 2 -10 -4z"/>
<path d="M2940 8232 c0 -5 5 -13 12 -20 17 -17 22 -55 6 -46 -7 4 -10 4 -6 0
3 -4 10 -8 15 -7 4 0 17 -9 28 -19 20 -19 21 -19 21 0 0 10 -3 17 -6 16 -3 -2
-13 5 -22 16 -10 10 -13 18 -8 18 15 0 -6 36 -25 44 -8 3 -15 2 -15 -2z"/>
<path d="M3330 8229 c0 -5 5 -7 10 -4 6 3 10 8 10 11 0 2 -4 4 -10 4 -5 0 -10
-5 -10 -11z"/>
<path d="M3050 8220 c0 -5 9 -10 21 -10 11 0 17 5 14 10 -3 6 -13 10 -21 10
-8 0 -14 -4 -14 -10z"/>
<path d="M3173 8217 c2 -7 22 -15 46 -18 49 -6 42 5 -12 19 -29 8 -37 8 -34
-1z"/>
<path d="M3059 8153 c-9 -11 -9 -14 -2 -10 7 5 17 0 24 -11 10 -16 16 -17 41
-8 16 6 28 18 28 28 0 25 -72 25 -91 1z"/>
<path d="M3176 8153 c-11 -11 -6 -23 9 -23 8 0 15 4 15 9 0 13 -16 22 -24 14z"/>
<path d="M3128 8103 c7 -3 16 -2 19 1 4 3 -2 6 -13 5 -11 0 -14 -3 -6 -6z"/>
<path d="M3110 8061 c0 -5 7 -12 16 -15 14 -5 15 -4 4 9 -14 17 -20 19 -20 6z"/>
<path d="M3096 7705 c-3 -9 0 -15 8 -15 7 0 13 7 13 15 0 8 -4 15 -8 15 -4 0
-9 -7 -13 -15z"/>
<path d="M2830 6610 c0 -5 5 -10 10 -10 6 0 10 5 10 10 0 6 -4 10 -10 10 -5 0
-10 -4 -10 -10z"/>
<path d="M2807 6589 c7 -7 15 -10 18 -7 3 3 -2 9 -12 12 -14 6 -15 5 -6 -5z"/>
<path d="M14718 9963 c17 -3 23 -10 19 -22 -4 -17 16 -44 27 -35 3 2 4 1 1 -3
-6 -8 25 -44 35 -38 3 2 6 -6 6 -18 -1 -16 4 -21 19 -20 11 1 14 0 8 -3 -19
-8 -16 -27 2 -20 9 3 18 -1 21 -9 4 -8 11 -12 18 -8 6 4 5 -1 -2 -10 -12 -14
-11 -16 6 -12 16 3 20 -1 17 -16 -3 -16 0 -19 15 -14 12 4 20 2 20 -4 0 -6 -9
-11 -20 -11 -21 0 -28 -24 -10 -35 6 -4 7 1 3 12 -6 16 -5 17 12 3 11 -9 16
-10 11 -2 -4 6 -2 12 3 12 6 0 11 -8 11 -17 0 -15 2 -16 10 -3 5 8 10 10 10 5
0 -6 -5 -16 -12 -23 -16 -16 -2 -28 16 -13 13 11 15 9 11 -8 -3 -16 1 -21 16
-21 10 0 19 -5 19 -11 0 -6 -7 -8 -16 -5 -8 3 -12 2 -9 -4 3 -6 15 -10 26 -10
10 0 19 -5 19 -11 0 -5 3 -8 8 -6 4 3 7 -6 7 -19 0 -13 -4 -24 -9 -24 -6 0 -1
-6 10 -14 10 -8 19 -20 19 -27 0 -7 7 -14 15 -16 12 -4 12 -3 2 5 -11 7 -11
10 2 15 12 5 16 0 16 -19 0 -14 4 -22 10 -19 13 8 13 -1 -1 -27 -8 -15 -8 -19
0 -14 10 7 15 -5 12 -29 -1 -5 5 -3 12 7 9 12 18 14 30 7 9 -6 17 -15 17 -21
0 -7 -6 -6 -15 2 -13 11 -14 10 -9 -4 3 -9 12 -16 20 -16 8 0 14 -7 14 -15 0
-8 5 -15 10 -15 6 0 10 -11 10 -25 0 -14 5 -26 10 -26 6 -1 15 -2 20 -3 6 0
10 -5 9 -11 -1 -5 -5 -9 -10 -8 -5 2 -9 -3 -9 -11 0 -9 7 -12 20 -9 15 4 19 2
14 -10 -3 -10 -12 -13 -22 -10 -9 4 -14 3 -10 -1 3 -4 14 -9 25 -11 29 -6 29
-6 8 -15 -19 -8 -19 -9 3 -9 12 -1 22 5 23 12 1 14 17 -22 18 -41 1 -8 -4 -10
-11 -6 -7 4 -8 3 -4 -4 4 -7 14 -12 23 -12 9 0 13 -6 10 -14 -4 -10 -1 -13 7
-10 7 3 16 -2 20 -11 4 -11 2 -14 -7 -9 -8 5 -7 2 2 -9 7 -9 20 -17 27 -17 13
0 19 -31 15 -67 -1 -6 8 -14 19 -18 11 -3 20 -11 20 -17 0 -7 4 -7 13 1 10 8
14 7 14 -4 0 -13 -10 -19 -29 -16 -3 0 -5 -7 -4 -17 2 -9 11 -17 21 -17 10 0
21 -10 26 -23 5 -12 11 -22 14 -22 4 0 3 6 -1 13 -4 6 -3 8 2 4 4 -4 9 -18 9
-30 0 -14 8 -23 25 -28 19 -5 21 -7 6 -8 -20 -1 -20 -1 0 -16 16 -13 17 -16 4
-25 -9 -6 -10 -10 -3 -10 6 0 15 -9 18 -20 4 -11 10 -18 15 -15 4 3 14 -3 21
-12 10 -11 10 -14 2 -9 -9 5 -12 0 -11 -17 2 -18 7 -24 19 -22 10 2 20 -3 23
-10 3 -10 0 -12 -11 -8 -10 4 -14 2 -10 -4 4 -6 -27 -39 -69 -74 -235 -200
-397 -479 -449 -775 -19 -111 -19 -307 0 -420 54 -314 225 -600 470 -788 99
-76 143 -104 231 -149 131 -66 328 -124 482 -141 61 -7 98 -37 93 -74 -1 -14
5 -29 16 -37 16 -12 14 -13 -17 -10 -19 3 -29 2 -22 -1 6 -3 12 -12 12 -20 0
-8 5 -14 11 -14 5 0 7 6 3 13 -5 8 -3 8 9 -2 9 -7 14 -18 10 -25 -4 -6 -8 -15
-8 -21 0 -5 -5 -10 -12 -10 -6 0 -15 -3 -19 -8 -4 -4 -2 -7 4 -7 6 0 9 -9 7
-20 -3 -15 2 -20 18 -20 18 0 19 -2 7 -10 -8 -5 -10 -10 -5 -10 6 0 3 -5 -5
-10 -13 -8 -13 -11 -1 -19 11 -7 10 -10 -5 -14 -16 -4 -16 -5 -2 -6 11 -1 15
-6 12 -16 -4 -10 0 -15 12 -16 11 0 14 -3 7 -5 -7 -3 -9 -12 -6 -20 3 -8 -1
-14 -8 -14 -11 0 -11 -2 1 -9 8 -6 17 -8 20 -6 3 2 5 -7 5 -20 0 -13 -5 -21
-12 -18 -6 3 -9 12 -6 21 5 13 3 15 -7 5 -10 -9 -9 -19 8 -47 21 -36 19 -50
-2 -20 -10 13 -12 12 -12 -9 0 -15 5 -23 12 -20 7 2 15 0 19 -6 3 -6 1 -11 -5
-11 -6 0 -8 -5 -5 -10 4 -6 12 -7 18 -3 7 4 6 0 -2 -10 -7 -9 -11 -23 -8 -30
3 -8 1 -20 -3 -28 -5 -7 -5 -18 1 -25 8 -9 4 -11 -13 -8 -13 2 -17 1 -10 -2
10 -4 10 -9 2 -19 -8 -10 -8 -19 0 -34 6 -12 8 -21 4 -21 -3 0 -1 -7 7 -16 10
-12 10 -17 1 -23 -20 -12 -22 -49 -4 -63 9 -7 13 -8 9 -2 -3 6 0 11 8 11 11 0
12 -4 4 -14 -6 -7 -8 -13 -3 -13 5 0 0 -8 -11 -17 -16 -13 -17 -15 -2 -10 9 4
17 2 17 -3 0 -5 -8 -14 -17 -20 -15 -9 -14 -10 7 -5 14 4 21 3 15 -2 -5 -4
-10 -22 -10 -39 1 -25 -3 -30 -17 -26 -10 2 -18 -1 -18 -7 0 -6 7 -11 15 -11
11 0 12 -5 5 -26 -7 -16 -7 -23 0 -19 6 3 10 1 10 -5 0 -6 -7 -13 -15 -16 -8
-4 -12 -10 -9 -15 3 -5 9 -7 13 -5 3 3 7 -4 7 -14 0 -10 -3 -17 -6 -15 -3 2
-10 -7 -17 -21 -10 -21 -9 -23 7 -14 14 7 19 5 23 -9 3 -14 1 -18 -9 -14 -8 3
-14 -1 -14 -10 0 -8 -17 -27 -37 -43 -21 -16 -44 -34 -51 -41 -19 -18 -1037
-760 -1079 -786 -7 -5 -24 16 -47 60 -20 37 -36 70 -36 74 0 4 103 72 230 151
215 134 258 168 211 168 -11 0 -34 19 -52 43 -18 23 -36 46 -40 50 -10 12
-399 -212 -399 -230 0 -20 6 -18 200 92 93 52 173 95 178 95 17 0 66 -70 56
-80 -5 -4 -94 -62 -199 -128 -234 -148 -265 -169 -265 -182 0 -6 12 -9 27 -8
23 3 30 -5 62 -65 l36 -68 -30 -22 c-65 -48 -80 -65 -69 -77 8 -8 25 -1 63 25
29 20 54 35 56 33 1 -2 34 -66 73 -144 64 -127 69 -143 55 -157 -20 -20 -8
-40 20 -32 22 6 22 6 2 -10 -47 -39 -43 -42 -202 164 -84 108 -163 212 -175
231 -25 36 -44 42 -42 12 0 -9 67 -102 148 -207 228 -295 216 -284 266 -245
14 11 34 20 45 20 12 0 25 11 32 26 11 23 10 27 -7 31 -11 3 -20 9 -20 13 0
11 811 760 875 809 17 12 53 45 82 72 39 38 49 44 40 25 -7 -14 -20 -29 -31
-32 -15 -5 -16 -8 -5 -15 12 -7 11 -9 -1 -9 -12 -1 -11 -3 3 -11 17 -10 16
-12 -3 -36 -20 -26 -27 -49 -12 -39 4 2 13 -4 20 -14 10 -17 9 -18 -6 -13 -9
3 -24 10 -32 16 -8 5 -3 -1 11 -15 27 -26 28 -48 1 -48 -15 -1 -14 -3 2 -15
20 -15 20 -15 0 -16 -17 0 -16 -1 4 -9 12 -5 22 -12 22 -15 0 -4 -4 -3 -10 0
-5 3 -10 -1 -10 -10 0 -8 -7 -18 -15 -21 -8 -4 -15 -10 -15 -16 0 -5 4 -7 9
-4 4 3 6 -6 3 -21 -3 -15 -1 -23 4 -20 6 3 10 -3 10 -13 0 -15 -3 -16 -14 -8
-10 9 -12 6 -8 -17 4 -20 0 -32 -12 -41 -9 -8 -12 -14 -5 -14 6 0 11 -9 10
-19 0 -11 -5 -17 -9 -15 -4 3 -8 0 -8 -5 0 -6 6 -11 13 -11 9 0 9 -2 -1 -9 -7
-4 -12 -14 -10 -22 2 -8 -2 -13 -8 -12 -11 2 -10 -73 1 -104 2 -7 0 -13 -5
-13 -6 0 -10 5 -10 12 0 9 -3 9 -11 1 -6 -6 -8 -17 -3 -24 14 -23 13 -58 -2
-87 -7 -15 -14 -37 -14 -50 0 -30 -18 -64 -31 -57 -17 11 -9 -4 14 -26 l22
-21 -22 7 c-19 5 -22 3 -16 -11 5 -13 3 -15 -8 -9 -11 6 -12 5 -1 -6 17 -18
15 -32 -4 -25 -12 4 -14 1 -10 -14 3 -11 9 -30 12 -41 4 -12 2 -19 -3 -16 -5
4 -10 0 -10 -8 0 -8 4 -15 9 -15 4 0 8 -4 8 -9 0 -5 -10 -7 -22 -4 -18 4 -20
2 -9 -5 12 -9 10 -13 -12 -23 -15 -7 -27 -19 -27 -27 0 -11 3 -12 14 -3 10 8
16 9 21 1 3 -5 1 -10 -5 -10 -6 0 -8 -5 -5 -10 3 -6 2 -10 -3 -10 -13 0 -22
-39 -11 -46 5 -3 5 -14 -2 -25 -6 -12 -13 -18 -16 -15 -3 3 0 14 8 23 13 17
13 17 -6 3 -11 -8 -21 -15 -23 -16 -2 -1 4 -14 13 -27 16 -25 16 -25 -5 -20
-20 5 -21 4 -11 -16 11 -20 8 -25 -14 -22 -5 1 -2 -5 8 -13 15 -12 16 -14 2
-20 -8 -3 -15 -1 -15 4 0 6 -5 10 -11 10 -8 0 -9 -4 0 -13 6 -8 7 -18 3 -22
-4 -5 -1 -5 6 -1 15 9 17 -20 1 -29 -6 -4 -8 -13 -5 -21 3 -8 0 -11 -8 -8 -8
3 -17 1 -21 -5 -3 -6 -1 -11 4 -11 6 0 11 -5 11 -11 0 -5 -4 -7 -10 -4 -5 3
-10 2 -10 -4 0 -5 6 -12 13 -14 7 -4 6 -6 -5 -6 -11 -1 -15 -7 -11 -21 3 -13
-1 -22 -11 -26 -10 -4 -13 -11 -8 -18 13 -17 8 -41 -8 -40 -11 1 -16 -11 -17
-40 -2 -31 0 -37 8 -26 9 13 10 13 6 0 -2 -8 -9 -15 -15 -15 -5 0 -14 -3 -18
-8 -11 -10 -13 -47 -2 -41 4 3 8 -2 8 -11 0 -13 -4 -14 -21 -5 -19 11 -20 10
-8 -11 9 -17 9 -24 0 -27 -6 -2 -9 -8 -5 -13 3 -5 -1 -9 -8 -9 -9 0 -9 -3 2
-10 13 -8 13 -11 1 -22 -12 -11 -13 -10 -7 2 4 8 -2 4 -13 -10 -19 -23 -19
-26 -3 -39 16 -13 16 -13 0 -8 -18 6 -23 -6 -20 -46 1 -10 -5 -20 -13 -23 -8
-4 -12 -10 -9 -15 5 -8 -10 -13 -29 -10 -4 1 -3 -8 3 -19 9 -17 8 -20 -7 -20
-17 -1 -17 -1 -1 -11 9 -5 15 -16 12 -24 -4 -8 -10 -12 -15 -9 -5 3 -9 0 -9
-5 0 -15 -27 -14 -33 2 -3 6 -5 3 -4 -9 1 -15 6 -20 19 -16 10 2 18 -1 18 -7
0 -6 -5 -10 -12 -9 -7 2 -13 -4 -14 -12 -4 -46 -6 -54 -11 -42 -5 13 -24 17
-22 5 3 -20 -2 -33 -12 -31 -6 2 -13 -8 -15 -22 -3 -18 -2 -21 5 -10 5 8 7 18
4 24 -3 5 -1 6 5 2 16 -9 -3 -46 -23 -46 -7 0 -16 -4 -19 -9 -4 -5 3 -7 14 -4
14 4 20 0 20 -12 0 -11 -5 -15 -16 -11 -8 3 -12 2 -9 -4 3 -6 1 -10 -5 -10 -7
0 -9 -9 -5 -22 4 -16 3 -19 -3 -9 -11 16 -19 4 -17 -26 1 -12 -4 -24 -12 -27
-11 -4 -11 -1 -3 14 6 11 8 20 6 20 -3 0 -12 -13 -21 -29 -11 -22 -12 -32 -3
-37 7 -4 8 -3 4 4 -4 7 -2 12 3 12 20 0 11 -28 -14 -48 -14 -11 -25 -27 -25
-36 0 -9 -4 -16 -8 -16 -5 0 -17 -20 -27 -44 -10 -25 -22 -43 -26 -40 -4 2 -5
-5 -2 -16 3 -12 -1 -22 -10 -26 -9 -3 -13 -12 -11 -19 3 -7 -3 -16 -13 -19
-17 -5 -22 -19 -26 -68 -1 -11 -9 -18 -22 -18 -15 0 -16 -3 -7 -9 11 -7 11 -9
-2 -14 -9 -4 -16 -1 -16 5 0 6 -3 8 -6 5 -4 -4 -2 -13 5 -21 9 -11 8 -15 -7
-18 -11 -3 -21 -15 -25 -27 -3 -11 -1 -19 4 -15 5 3 9 0 9 -5 0 -6 -4 -11 -10
-11 -5 0 -10 -7 -10 -16 0 -23 -57 -77 -72 -68 -7 4 -4 -3 6 -15 17 -18 17
-21 3 -15 -13 5 -17 1 -17 -16 0 -14 4 -19 13 -14 7 4 9 3 4 -2 -9 -9 -13 -10
-44 -13 -15 -1 -15 -3 -4 -10 11 -7 8 -15 -15 -37 -23 -21 -25 -26 -9 -21 17
6 17 5 -2 -9 -13 -9 -23 -24 -23 -34 0 -24 -36 -56 -44 -38 -3 7 -4 3 -2 -10
3 -14 -1 -25 -10 -29 -8 -3 -13 -13 -12 -22 2 -11 -3 -15 -16 -13 -18 3 -18 2
-5 -14 12 -16 12 -17 -3 -11 -12 4 -18 1 -18 -9 0 -8 -3 -13 -8 -10 -4 2 -13
-7 -19 -20 -11 -23 -10 -24 10 -20 12 3 9 0 -8 -8 -16 -8 -34 -12 -39 -8 -5 3
-6 -1 -1 -8 6 -10 4 -12 -8 -7 -11 4 -14 2 -11 -8 3 -8 11 -13 17 -11 7 1 9 1
4 -1 -4 -3 -4 -10 -1 -15 4 -7 2 -8 -5 -4 -14 9 -38 -14 -55 -54 -7 -17 -17
-31 -22 -31 -5 1 -9 -3 -9 -9 0 -14 -41 -41 -50 -32 -5 4 -5 1 -1 -6 12 -20
-15 -81 -32 -74 -11 4 -13 1 -8 -9 4 -8 0 -5 -8 5 -18 23 -21 10 -6 -29 8 -20
7 -24 -2 -19 -23 15 -49 11 -59 -8 -6 -11 -8 -22 -5 -25 3 -3 10 5 15 18 7 16
10 19 10 7 1 -9 -11 -26 -26 -38 -21 -16 -24 -23 -14 -29 9 -6 10 -11 2 -15
-6 -4 -11 -2 -11 3 0 6 -4 11 -9 11 -9 0 -22 -28 -27 -58 -4 -20 -14 -28 -14
-10 0 8 -7 15 -14 15 -12 0 -13 -5 -4 -20 9 -17 8 -19 -11 -14 -14 3 -21 0
-21 -10 0 -9 5 -11 13 -7 6 5 -1 -7 -16 -25 -15 -19 -26 -40 -23 -47 3 -8 -1
-14 -10 -14 -12 0 -13 4 -3 21 8 16 8 24 -2 33 -9 8 -11 7 -6 -6 4 -11 -3 -22
-19 -33 -18 -11 -23 -22 -19 -36 4 -13 2 -19 -9 -19 -8 0 -23 -16 -32 -36 -12
-26 -19 -32 -25 -22 -6 9 -9 4 -9 -16 0 -22 -3 -26 -13 -17 -14 11 -37 -3 -37
-24 0 -5 -9 -16 -20 -23 -12 -7 -18 -17 -15 -22 3 -6 2 -10 -4 -10 -5 0 -12 6
-14 13 -4 9 -6 8 -6 -2 -1 -8 -9 -20 -18 -28 -11 -9 -12 -12 -3 -7 12 5 12 4
3 -6 -6 -7 -10 -18 -9 -24 2 -6 1 -8 -1 -3 -15 25 -61 -16 -55 -48 3 -16 1
-18 -9 -8 -15 15 -33 17 -24 3 6 -9 -8 -15 -29 -11 -5 1 -3 -6 5 -15 12 -16
12 -17 -3 -11 -10 3 -19 2 -19 -3 -1 -6 -2 -16 -3 -22 -1 -7 -8 -12 -15 -10
-9 2 -10 -4 -6 -19 4 -12 3 -19 -1 -16 -8 5 -35 -17 -31 -25 1 -2 -4 3 -10 11
-11 13 -13 13 -13 -2 0 -9 -4 -17 -10 -17 -5 0 -10 -9 -10 -19 0 -14 -6 -19
-19 -16 -12 2 -23 -5 -31 -20 -7 -13 -20 -27 -28 -30 -13 -5 -12 -2 2 14 13
14 14 21 5 27 -8 4 -10 3 -5 -4 4 -7 3 -12 -3 -12 -6 0 -14 -12 -17 -26 -5
-18 -19 -32 -46 -44 -26 -11 -34 -19 -25 -23 8 -3 20 0 27 6 9 8 8 5 -1 -10
-7 -12 -16 -19 -19 -15 -3 4 -14 9 -24 10 -17 3 -18 2 -6 -13 12 -14 10 -17
-9 -22 -14 -3 -20 -11 -17 -20 3 -8 2 -12 -3 -8 -5 3 -11 2 -14 -2 -2 -5 -2
-3 -1 4 2 7 -1 15 -7 18 -5 4 -9 3 -8 -2 3 -20 -2 -46 -8 -40 -3 4 -13 1 -21
-6 -11 -8 -14 -8 -9 0 4 6 2 15 -4 19 -8 4 -9 3 -5 -4 4 -8 0 -12 -11 -12 -12
0 -14 -3 -6 -8 8 -5 7 -12 -4 -27 -14 -18 -15 -18 -9 -2 4 13 2 17 -6 14 -7
-2 -12 -12 -12 -21 1 -9 -3 -15 -10 -13 -6 2 -19 -9 -29 -26 -12 -19 -23 -27
-34 -23 -11 5 -14 1 -10 -13 4 -15 0 -19 -15 -16 -15 3 -17 1 -9 -8 7 -10 5
-13 -10 -14 -11 -1 -17 2 -14 8 4 5 -1 9 -9 9 -10 0 -13 -6 -9 -17 4 -10 2
-14 -4 -10 -5 3 -10 0 -10 -8 0 -18 9 -19 26 -3 11 10 13 10 7 1 -6 -10 548
-13 2753 -13 l2761 0 0 4985 0 4985 -2252 -1 c-1239 -1 -2242 -4 -2230 -6z
m932 -1383 c0 -5 -2 -10 -4 -10 -3 0 -8 5 -11 10 -3 6 -1 10 4 10 6 0 11 -4
11 -10z m20 -22 c0 -4 -4 -8 -9 -8 -6 0 -9 -9 -8 -20 1 -11 5 -20 10 -20 4 0
5 -5 1 -12 -4 -7 -3 -8 4 -4 6 4 20 -2 32 -14 11 -11 16 -20 12 -20 -5 0 -6
-15 -3 -32 4 -32 5 -32 11 -8 6 22 9 17 25 -35 10 -33 18 -63 17 -67 -1 -5 4
-8 12 -8 9 0 12 -7 9 -19 -3 -10 0 -22 6 -25 6 -4 11 -16 11 -27 0 -11 7 -19
16 -19 13 0 15 -7 10 -30 -3 -19 -2 -29 4 -25 6 3 10 -1 10 -9 0 -9 5 -16 11
-16 5 0 7 -5 3 -12 -5 -7 -2 -9 8 -6 11 5 14 0 10 -18 -3 -16 1 -26 12 -30 21
-8 21 -24 -1 -24 -15 0 -15 -1 0 -18 19 -21 22 -37 5 -26 -7 4 -8 3 -4 -5 6
-9 11 -9 22 0 9 7 14 8 14 1 0 -6 -4 -14 -10 -17 -15 -9 -12 -19 12 -45 25
-26 31 -47 17 -56 -5 -3 -9 0 -9 7 0 7 -2 10 -5 7 -3 -3 0 -16 8 -30 8 -17 19
-24 33 -22 13 2 21 -2 21 -11 0 -8 -5 -12 -10 -8 -5 3 -1 -7 9 -22 14 -22 15
-31 6 -46 -7 -10 -9 -19 -5 -18 19 3 33 -2 33 -12 0 -5 -4 -8 -9 -5 -5 3 -11
-3 -14 -13 -4 -15 -1 -18 12 -14 9 4 13 3 9 -2 -11 -11 12 -36 25 -28 6 3 7 1
3 -6 -4 -6 -11 -9 -16 -6 -4 3 -10 -4 -13 -14 -3 -14 0 -17 14 -14 15 4 18 1
13 -11 -4 -11 -1 -16 11 -16 14 0 15 -3 5 -15 -7 -8 -17 -12 -23 -8 -6 4 -7 1
-3 -6 5 -7 14 -10 21 -7 22 8 26 -6 8 -27 -17 -19 -17 -20 0 -14 11 4 16 3 12
-3 -3 -6 0 -10 7 -11 7 0 4 -4 -7 -9 -18 -8 -18 -9 -2 -9 10 -1 15 -6 12 -11
-4 -6 -11 -8 -16 -5 -5 4 -9 1 -9 -5 0 -6 6 -10 13 -9 25 3 38 -1 32 -11 -4
-6 -11 -7 -17 -4 -7 4 -8 2 -4 -4 4 -7 13 -12 20 -12 15 0 17 -30 3 -48 -7 -9
-6 -11 7 -6 9 3 18 0 21 -7 11 -31 12 -65 2 -78 -8 -10 -7 -16 6 -25 12 -10
14 -15 5 -24 -9 -9 -7 -15 7 -26 16 -12 17 -16 6 -30 -12 -14 -11 -16 5 -17
11 -1 23 -1 27 0 5 1 6 -3 2 -9 -11 -17 -15 -52 -7 -64 3 -6 7 -17 8 -24 2 -8
6 -17 10 -20 4 -4 4 1 1 11 -4 9 -2 17 3 17 5 0 7 -25 5 -56 -2 -44 0 -54 11
-50 21 8 25 -8 8 -33 -8 -12 -21 -18 -27 -15 -7 4 -2 -3 11 -15 12 -12 22 -27
22 -32 0 -6 7 -9 15 -5 12 4 12 0 -2 -21 -17 -26 -17 -27 2 -20 19 7 19 6 1
-7 -21 -17 -12 -40 13 -32 14 5 14 4 1 -6 -17 -14 -23 -61 -7 -51 6 4 8 -1 4
-11 -4 -10 -3 -15 3 -11 6 3 10 -3 10 -14 0 -12 -5 -21 -12 -21 -6 0 -2 -8 10
-18 18 -16 19 -19 4 -28 -13 -9 -13 -12 -2 -19 9 -6 11 -4 5 6 -8 12 -6 12 8
0 17 -14 16 -22 -12 -56 -15 -18 -15 -19 2 -6 10 8 17 9 17 3 0 -6 3 -19 6
-29 5 -15 4 -15 -5 -3 -8 11 -10 6 -7 -23 2 -22 12 -45 23 -55 18 -15 19 -19
6 -31 -8 -7 -11 -16 -6 -20 46 -34 -46 -41 -193 -16 -498 87 -903 484 -1001
982 -20 107 -23 316 -4 423 27 157 96 330 183 461 103 153 278 319 337 317 17
-1 31 -5 31 -10z m15 -27 c3 -5 1 -12 -4 -15 -5 -3 -11 1 -15 9 -6 16 9 21 19
6z m230 -501 c3 -5 2 -10 -4 -10 -5 0 -13 5 -16 10 -3 6 -2 10 4 10 5 0 13 -4
16 -10z m21 -77 c-7 -7 -26 7 -26 19 0 6 6 6 15 -2 9 -7 13 -15 11 -17z m31
-84 c2 -16 -1 -19 -9 -11 -5 5 -7 15 -4 21 10 15 12 14 13 -10z m373 -1399 c0
-5 -9 -6 -20 -3 -11 3 -17 9 -15 14 7 10 35 1 35 -11z m55 -849 c-3 -6 -11
-11 -16 -11 -5 0 -4 6 3 14 14 16 24 13 13 -3z m-3 -98 c-6 -2 -9 -10 -6 -15
4 -7 2 -8 -5 -4 -13 9 -5 26 12 25 9 0 8 -2 -1 -6z m8 -490 c0 -3 -7 -3 -14 0
-10 4 -13 1 -9 -8 3 -8 9 -12 14 -9 15 9 10 -3 -8 -17 -11 -10 -14 -10 -9 -1
4 6 2 12 -3 12 -6 0 -11 -7 -11 -15 0 -8 -7 -15 -16 -15 -8 0 -13 -4 -10 -9 3
-4 18 -7 33 -5 16 2 22 1 15 -2 -6 -3 -9 -10 -6 -16 4 -6 -2 -8 -17 -4 -13 3
-18 3 -11 0 48 -22 -12 -85 -622 -658 l-369 -347 -34 63 c-79 145 -114 221
-106 227 6 3 212 150 459 327 552 394 695 492 712 487 6 -3 12 -7 12 -10z
m-750 -2687 c0 -3 -4 -8 -10 -11 -5 -3 -10 -1 -10 4 0 6 5 11 10 11 6 0 10 -2
10 -4z m-115 -206 c3 -5 1 -10 -4 -10 -6 0 -11 5 -11 10 0 6 2 10 4 10 3 0 8
-4 11 -10z m-255 -440 c0 -5 -4 -10 -10 -10 -5 0 -10 5 -10 10 0 6 5 10 10 10
6 0 10 -4 10 -10z m-503 -652 c-3 -8 -6 -5 -6 6 -1 11 2 17 5 13 3 -3 4 -12 1
-19z m-270 -293 c0 -8 -4 -12 -9 -9 -5 3 -6 10 -3 15 9 13 12 11 12 -6z m-194
-210 c-3 -9 -8 -14 -10 -11 -3 3 -2 9 2 15 9 16 15 13 8 -4z"/>
<path d="M16150 7135 c0 -8 4 -15 10 -15 5 0 7 7 4 15 -4 8 -8 15 -10 15 -2 0
-4 -7 -4 -15z"/>
<path d="M16281 6601 c-8 -5 -9 -11 -3 -15 5 -3 12 1 16 9 6 17 6 18 -13 6z"/>
<path d="M4340 9906 c0 -2 7 -7 16 -10 8 -3 12 -2 9 4 -6 10 -25 14 -25 6z"/>
<path d="M15006 9572 c-3 -5 1 -9 9 -9 8 0 15 4 15 9 0 4 -4 8 -9 8 -6 0 -12
-4 -15 -8z"/>
<path d="M15150 9349 c0 -5 5 -7 10 -4 6 3 10 8 10 11 0 2 -4 4 -10 4 -5 0
-10 -5 -10 -11z"/>
<path d="M15360 9050 c-9 -6 -10 -10 -3 -10 6 0 15 5 18 10 8 12 4 12 -15 0z"/>
<path d="M7742 6918 c-9 -9 -12 -79 -12 -254 0 -133 3 -249 6 -258 6 -15 164
-16 1689 -16 1525 0 1683 1 1689 16 3 9 6 125 6 258 0 175 -3 245 -12 254 -17
17 -3349 17 -3366 0z m3338 -258 l0 -240 -1655 0 -1655 0 0 240 0 240 1655 0
1655 0 0 -240z"/>
<path d="M8800 6692 c0 -141 -10 -172 -56 -172 -17 0 -24 -5 -24 -20 0 -15 7
-20 26 -20 75 0 94 43 94 210 0 123 -1 130 -20 130 -19 0 -20 -7 -20 -128z"/>
<path d="M9016 6810 c-91 -29 -132 -147 -86 -247 25 -55 70 -83 135 -83 99 0
155 61 155 170 0 71 -20 116 -63 144 -29 20 -103 28 -141 16z m136 -69 c53
-59 45 -165 -15 -201 -42 -26 -107 -26 -139 0 -74 57 -58 194 27 231 38 17 98
2 127 -30z"/>
<path d="M9300 6700 c0 -174 25 -220 120 -220 105 0 130 43 130 218 0 115 -1
122 -20 122 -19 0 -20 -7 -20 -124 0 -110 -2 -126 -21 -150 -26 -32 -84 -36
-120 -7 -23 18 -24 27 -27 150 -3 121 -5 131 -23 131 -18 0 -19 -8 -19 -120z"/>
<path d="M9640 6650 l0 -170 90 0 c83 0 90 1 90 20 0 18 -7 20 -70 20 l-70 0
0 55 0 55 60 0 c53 0 60 2 60 20 0 18 -7 20 -60 20 l-60 0 0 55 0 55 65 0 c58
0 65 2 65 20 0 18 -7 20 -85 20 l-85 0 0 -170z"/>
<path d="M9900 6650 c0 -142 2 -170 15 -170 11 0 15 16 17 68 3 62 5 67 26 70
30 4 65 -27 100 -90 20 -35 33 -48 50 -48 20 0 22 2 11 23 -18 34 -71 111 -83
120 -8 6 -7 10 3 14 47 19 70 77 50 124 -16 39 -60 59 -134 59 l-55 0 0 -170z
m147 104 c34 -46 -3 -94 -72 -94 l-45 0 0 53 c0 30 3 57 8 61 13 14 95 -1 109
-20z"/>
<path d="M7774 6157 c-2 -7 -3 -96 -2 -197 l3 -185 1612 -3 1613 -2 5 22 c3
13 4 102 3 198 l-3 175 -1613 3 c-1306 2 -1614 0 -1618 -11z m3069 -15 l137
-3 0 -170 0 -169 -1590 0 -1590 0 0 170 0 170 308 2 c452 4 2574 4 2735 0z"/>
<path d="M8830 5975 c0 -113 2 -135 15 -135 12 0 15 13 15 55 0 48 3 55 20 55
23 0 50 -27 76 -75 11 -21 26 -35 37 -35 17 0 17 3 -4 40 -13 22 -31 49 -41
60 -17 19 -17 20 2 30 30 16 43 58 30 91 -13 31 -53 49 -111 49 l-39 0 0 -135z
m101 95 c22 -12 26 -59 7 -78 -7 -7 -27 -12 -45 -12 -33 0 -33 0 -33 50 0 47
2 50 26 50 14 0 34 -5 45 -10z"/>
<path d="M9060 5975 l0 -135 70 0 c56 0 70 3 70 15 0 12 -13 15 -55 15 l-55 0
0 45 0 45 50 0 c38 0 50 4 50 15 0 11 -12 15 -50 15 l-50 0 0 45 0 45 50 0
c38 0 50 4 50 15 0 12 -14 15 -65 15 l-65 0 0 -135z"/>
<path d="M9336 6100 c-55 -17 -96 -73 -96 -130 0 -45 28 -98 61 -115 34 -18
98 -19 134 -3 23 10 25 17 25 70 l0 58 -45 0 c-51 0 -66 -26 -17 -32 21 -2 28
-9 30 -32 4 -35 -10 -46 -60 -46 -96 0 -133 133 -52 186 28 19 76 23 112 11
16 -6 22 -5 22 7 0 8 -3 17 -8 20 -17 10 -79 14 -106 6z"/>
<path d="M9530 5975 l0 -135 71 0 c52 0 70 3 67 13 -3 7 -26 13 -56 15 l-52 3
0 120 c0 99 -3 119 -15 119 -13 0 -15 -22 -15 -135z"/>
<path d="M9717 6103 c-4 -3 -7 -64 -7 -135 l0 -128 70 0 c56 0 70 3 70 15 0
12 -13 15 -56 15 l-55 0 3 43 3 42 48 3 c33 2 47 7 47 18 0 10 -13 14 -51 14
l-50 0 3 43 3 42 53 3 c37 2 52 7 52 18 0 11 -15 14 -63 14 -35 0 -67 -3 -70
-7z"/>
<path d="M9943 6095 c-35 -15 -53 -57 -36 -84 5 -9 25 -26 44 -38 72 -46 85
-60 73 -80 -13 -21 -74 -29 -104 -13 -17 9 -20 8 -20 -9 0 -47 119 -41 157 8
27 35 4 68 -74 110 -49 27 -60 45 -43 71 6 10 25 15 60 13 35 -1 50 3 50 12 0
25 -59 31 -107 10z"/>
<path d="M2736 5742 c-3 -5 1 -9 9 -9 8 0 12 4 9 9 -3 4 -7 8 -9 8 -2 0 -6 -4
-9 -8z"/>
<path d="M16353 5725 c0 -8 8 -16 18 -18 11 -3 16 0 12 8 -7 19 -30 26 -30 10z"/>
<path d="M7692 5323 l3 -198 1690 0 1690 0 3 198 2 197 -1695 0 -1695 0 2
-197z m3358 -3 l0 -170 -1662 2 -1663 3 -3 168 -2 167 1665 0 1665 0 0 -170z"/>
<path d="M8855 5453 c-61 -16 -103 -91 -90 -159 10 -56 62 -104 113 -104 87 0
132 46 132 134 0 95 -67 151 -155 129z m103 -59 c16 -19 22 -38 22 -75 0 -63
-33 -99 -89 -99 -48 0 -78 22 -92 69 -10 33 -9 45 7 77 33 68 105 81 152 28z"/>
<path d="M9080 5326 c0 -114 2 -136 15 -136 11 0 15 12 15 44 l0 43 42 6 c79
11 113 86 65 143 -19 22 -34 28 -80 32 l-57 4 0 -136z m117 77 c29 -39 7 -78
-49 -88 l-38 -7 0 62 0 63 37 -6 c21 -4 44 -14 50 -24z"/>
<path d="M9270 5445 c0 -11 11 -15 40 -15 l40 0 0 -120 c0 -100 3 -120 15
-120 13 0 15 20 15 120 l0 120 41 0 c28 0 39 4 37 13 -3 8 -34 13 -96 15 -77
2 -92 0 -92 -13z"/>
<path d="M9500 5325 c0 -113 2 -135 15 -135 13 0 15 22 15 135 0 113 -2 135
-15 135 -13 0 -15 -22 -15 -135z"/>
<path d="M9671 5447 c-65 -23 -97 -104 -71 -182 33 -100 197 -100 230 0 16 48
8 120 -16 147 -20 22 -74 48 -96 47 -7 0 -28 -5 -47 -12z m88 -32 c36 -18 55
-64 48 -113 -12 -76 -96 -108 -154 -58 -24 21 -28 32 -28 74 0 86 65 133 134
97z"/>
<path d="M9907 5454 c-4 -4 -7 -65 -7 -136 0 -121 1 -128 20 -128 19 0 20 7
20 108 l0 107 70 -107 c51 -79 75 -108 90 -108 19 0 20 6 20 135 0 113 -2 135
-15 135 -12 0 -15 -20 -15 -116 l0 -117 -73 114 c-67 105 -92 131 -110 113z"/>
<path d="M16376 5375 c-3 -8 -1 -15 4 -15 6 0 10 7 10 15 0 8 -2 15 -4 15 -2
0 -6 -7 -10 -15z"/>
<path d="M7692 4503 l3 -238 1765 0 1765 0 0 235 0 235 -1768 3 -1767 2 2
-237z m3231 209 l277 -3 -2 -207 -3 -207 -1737 -3 -1738 -2 0 210 0 210 318 2
c441 4 2547 4 2885 0z"/>
<path d="M8723 4629 c-18 -5 -45 -26 -60 -46 -23 -30 -28 -46 -28 -93 0 -92
58 -153 141 -148 26 1 52 -5 67 -15 15 -9 39 -17 54 -17 l28 1 -34 28 -34 28
23 31 c14 19 24 50 27 79 9 108 -81 183 -184 152z m108 -42 c26 -20 39 -53 39
-102 0 -97 -104 -142 -172 -75 -28 29 -30 35 -26 87 4 46 10 61 32 80 30 26
99 31 127 10z"/>
<path d="M8972 4523 c2 -80 8 -125 18 -140 33 -51 122 -55 169 -8 25 24 26 32
29 146 3 113 2 121 -15 117 -16 -3 -18 -16 -21 -113 -3 -126 -12 -145 -72
-145 -56 0 -64 17 -70 144 -4 98 -7 111 -24 114 -17 4 -18 -3 -14 -115z"/>
<path d="M9275 4628 c-3 -8 -4 -75 -3 -149 3 -111 6 -134 18 -134 13 0 15 23
15 144 0 107 -3 145 -12 148 -7 3 -15 -2 -18 -9z"/>
<path d="M9355 4630 c-11 -19 6 -30 46 -30 l39 0 0 -130 c0 -109 2 -130 15
-130 13 0 15 21 15 129 l0 130 42 3 c31 2 44 8 46 21 3 15 -7 17 -97 17 -56 0
-103 -4 -106 -10z"/>
<path d="M9582 4623 c2 -13 14 -19 46 -21 l42 -3 0 -130 c0 -108 2 -129 15
-129 13 0 15 21 15 129 l0 130 43 3 c29 2 42 8 42 18 0 12 -19 16 -103 18 -95
2 -103 1 -100 -15z"/>
<path d="M9840 4490 l0 -150 75 0 c68 0 75 2 75 20 0 18 -7 20 -60 20 l-60 0
0 44 0 45 53 3 c38 2 52 7 52 18 0 11 -14 16 -52 18 l-53 3 0 44 0 44 58 3
c43 2 57 7 57 18 0 12 -16 16 -72 18 l-73 3 0 -151z"/>
<path d="M10060 4490 c0 -127 2 -150 15 -150 12 0 15 13 15 61 l0 60 33 -3
c27 -3 37 -11 66 -60 22 -38 40 -58 52 -58 11 0 19 2 19 5 0 8 -69 113 -79
119 -5 4 4 19 20 35 30 30 37 67 19 101 -12 23 -61 40 -116 40 l-44 0 0 -150z
m124 94 c20 -19 20 -34 0 -62 -11 -16 -25 -22 -55 -22 l-39 0 0 50 0 50 39 0
c23 0 46 -7 55 -16z"/>
<path d="M4450 4441 c0 -6 5 -11 10 -11 22 0 7 -20 -44 -59 -30 -22 -57 -50
-61 -61 -4 -13 -15 -20 -33 -21 -20 0 0 -14 77 -53 61 -31 99 -56 93 -60 -7
-4 -12 -10 -12 -15 0 -7 79 -31 108 -31 9 -1 59 -21 111 -45 87 -40 96 -42
116 -29 13 8 35 42 50 75 22 50 30 59 46 54 11 -4 19 -2 19 5 0 15 -25 40 -40
40 -22 0 -256 117 -327 163 -77 49 -113 64 -113 48z"/>
<path d="M14720 4443 c-8 -4 -46 -27 -85 -51 -75 -49 -302 -162 -323 -162 -16
0 -42 -24 -42 -40 0 -7 8 -9 19 -5 16 5 24 -4 46 -54 47 -104 34 -105 315 33
189 92 239 121 219 124 -19 2 -94 -31 -248 -108 l-222 -111 -30 67 c-17 36
-29 67 -27 69 17 15 70 34 81 29 8 -3 41 11 73 32 32 20 100 57 152 82 70 33
92 48 88 59 -4 9 -1 22 5 29 12 15 5 17 -21 7z"/>
<path d="M16225 4060 c-3 -5 -2 -10 4 -10 5 0 13 5 16 10 3 6 2 10 -4 10 -5 0
-13 -4 -16 -10z"/>
<path d="M16210 4025 c-8 -9 -8 -15 -2 -15 12 0 26 19 19 26 -2 2 -10 -2 -17
-11z"/>
<path d="M2960 3736 c0 -2 8 -10 18 -17 15 -13 16 -12 3 4 -13 16 -21 21 -21
13z"/>
<path d="M2990 3630 c0 -5 5 -10 11 -10 5 0 7 5 4 10 -3 6 -8 10 -11 10 -2 0
-4 -4 -4 -10z"/>
<path d="M3025 3559 c-4 -6 -5 -12 -2 -15 2 -3 7 2 10 11 7 17 1 20 -8 4z"/>
<path d="M15864 2936 c1 -8 5 -18 8 -22 4 -3 5 1 4 10 -1 8 -5 18 -8 22 -4 3
-5 -1 -4 -10z"/>
<path d="M15857 2893 c-3 -5 -2 -15 2 -22 5 -7 11 -9 14 -4 3 5 2 15 -2 22 -5
7 -11 9 -14 4z"/>
<path d="M15630 2384 c0 -8 5 -12 10 -9 6 4 8 11 5 16 -9 14 -15 11 -15 -7z"/>
<path d="M3512 2275 c3 -3 16 -8 28 -10 12 -2 20 -1 16 2 -4 4 -16 8 -28 10
-12 2 -19 1 -16 -2z"/>
<path d="M3897 1679 c7 -7 15 -10 18 -7 3 3 -2 9 -12 12 -14 6 -15 5 -6 -5z"/>
<path d="M15159 1613 c-13 -16 -12 -17 4 -4 16 13 21 21 13 21 -2 0 -10 -8
-17 -17z"/>
<path d="M15105 1550 c-3 -6 1 -7 9 -4 18 7 21 14 7 14 -6 0 -13 -4 -16 -10z"/>
<path d="M4060 1430 c0 -5 5 -10 11 -10 5 0 7 5 4 10 -3 6 -8 10 -11 10 -2 0
-4 -4 -4 -10z"/>
<path d="M4096 1383 c-6 -14 -5 -15 5 -6 7 7 10 15 7 18 -3 3 -9 -2 -12 -12z"/>
<path d="M14951 1328 c-13 -20 -12 -22 1 -11 8 7 18 10 22 6 4 -4 4 0 0 10 -8
21 -6 21 -23 -5z"/>
<path d="M4570 820 c0 -5 5 -10 11 -10 5 0 7 5 4 10 -3 6 -8 10 -11 10 -2 0
-4 -4 -4 -10z"/>
<path d="M14500 800 c-9 -6 -10 -10 -3 -10 6 0 15 5 18 10 8 12 4 12 -15 0z"/>
<path d="M4708 668 c5 -5 16 -8 23 -6 8 3 3 7 -10 11 -17 4 -21 3 -13 -5z"/>
<path d="M4744 638 c1 -7 12 -14 24 -14 12 -1 19 3 16 8 -3 5 -12 7 -19 4 -8
-3 -16 -1 -19 5 -2 5 -3 4 -2 -3z"/>
<path d="M5428 33 c6 -2 12 -11 12 -19 0 -20 25 -18 41 4 12 15 12 16 -2 4
-13 -10 -19 -9 -29 3 -7 8 -18 15 -24 14 -7 0 -6 -2 2 -6z"/>
</g>
</svg>
