<?xml version="1.0" standalone="no"?>
<!DOCTYPE svg PUBLIC "-//W3C//DTD SVG 20010904//EN"
 "http://www.w3.org/TR/2001/REC-SVG-20010904/DTD/svg10.dtd">
<svg version="1.0" xmlns="http://www.w3.org/2000/svg"
 width="1920.000000pt" height="997.000000pt" viewBox="0 0 1920.000000 997.000000"
 preserveAspectRatio="xMidYMid meet">

<g transform="translate(0.000000,997.000000) scale(0.100000,-0.100000)"
fill="#000000" stroke="none">
<path d="M2420 8652 c0 -39 5 -74 11 -77 7 -5 8 15 3 66 -3 41 -8 76 -10 78
-2 2 -4 -28 -4 -67z"/>
<path d="M2531 8644 c0 -11 3 -14 6 -6 3 7 2 16 -1 19 -3 4 -6 -2 -5 -13z"/>
<path d="M2537 8603 c-3 -4 -1 -48 5 -97 5 -48 7 -94 4 -101 -3 -8 -17 -15
-33 -17 -43 -5 -36 -32 10 -36 28 -2 37 -8 37 -22 0 -32 18 -31 22 1 5 31 -26
266 -35 276 -3 2 -7 1 -10 -4z"/>
<path d="M2470 8570 c0 -5 5 -10 10 -10 6 0 10 5 10 10 0 6 -4 10 -10 10 -5 0
-10 -4 -10 -10z"/>
<path d="M2660 8373 c-25 -3 -49 -9 -55 -14 -7 -7 23 -10 92 -7 64 2 107 8
115 16 12 12 -41 14 -152 5z"/>
<path d="M2285 8350 c-4 -6 7 -10 25 -10 18 0 29 4 25 10 -3 6 -15 10 -25 10
-10 0 -22 -4 -25 -10z"/>
<path d="M2006 8304 c-123 -49 -154 -69 -91 -59 57 9 182 54 196 71 7 8 30 14
58 14 25 0 53 5 61 10 10 7 -5 9 -50 9 -52 -1 -86 -9 -174 -45z"/>
<path d="M2868 8326 c-72 -14 -89 -30 -23 -22 28 3 83 8 123 12 39 4 72 11 72
15 0 12 -102 9 -172 -5z"/>
<path d="M3160 8333 c0 -21 148 -123 179 -123 20 0 12 20 -13 31 -14 7 -22 17
-19 25 3 9 -2 14 -16 14 -25 0 -75 21 -108 46 -13 9 -23 12 -23 7z"/>
<path d="M1595 8247 c-109 -35 -139 -49 -183 -86 -46 -39 -68 -81 -43 -81 5 0
13 -17 19 -37 l10 -38 1 45 c1 25 8 54 16 64 14 19 15 18 15 -11 0 -17 3 -44
6 -61 5 -24 10 -29 28 -24 19 5 19 4 7 -11 -12 -15 -11 -20 4 -37 10 -11 22
-17 27 -14 4 3 7 2 6 -3 -4 -13 25 -53 38 -53 7 0 14 -7 17 -14 3 -8 22 -18
41 -22 20 -3 36 -10 36 -15 0 -5 9 -9 20 -9 13 0 20 -7 20 -20 0 -13 7 -20 20
-20 11 0 20 -4 20 -10 0 -5 9 -10 19 -10 11 0 21 -5 23 -11 4 -13 163 -17 231
-6 l47 8 0 -60 c0 -34 4 -61 8 -61 5 0 14 -83 20 -184 15 -231 34 -374 66
-496 32 -123 50 -173 64 -178 17 -5 15 6 -13 117 -16 65 -22 110 -18 136 4 25
3 36 -4 32 -15 -9 -20 17 -33 152 -6 64 -15 152 -20 196 -5 44 -12 108 -15
141 l-6 61 43 0 c24 1 51 -4 62 -9 12 -7 21 -7 25 0 3 5 51 13 106 16 55 4
127 14 160 22 97 26 221 8 199 -28 -3 -4 -32 -8 -65 -8 -33 0 -59 -4 -59 -10
0 -6 44 -10 111 -10 91 0 110 3 106 14 -6 15 20 26 63 26 24 0 24 -1 -7 -19
-17 -11 -50 -25 -73 -31 -22 -6 -38 -15 -35 -20 11 -18 50 -10 123 26 71 35
163 56 161 38 0 -5 -9 -47 -19 -94 l-18 -85 -1 58 c-1 55 -12 74 -25 41 -3 -9
-6 -39 -6 -68 0 -28 -11 -119 -24 -201 -13 -83 -27 -175 -31 -205 -6 -52 -6
-54 12 -37 14 12 22 44 32 119 7 57 19 110 26 118 12 15 49 181 60 276 8 65
31 91 89 99 25 4 53 13 63 20 17 13 17 14 0 21 -10 3 -46 0 -80 -9 -74 -19
-167 -27 -167 -16 0 5 8 9 19 9 10 0 21 9 24 20 3 13 10 18 21 14 10 -4 16 -1
16 9 0 10 7 13 20 10 11 -3 20 0 20 6 0 6 9 11 20 11 11 0 20 6 20 14 0 8 15
17 35 20 20 4 51 16 70 27 19 11 39 18 45 14 5 -3 10 -1 10 4 0 6 9 11 20 11
11 0 20 5 20 10 0 6 4 10 8 10 10 0 9 -30 -1 -46 -3 -6 -11 -24 -17 -40 l-11
-29 23 23 c14 12 45 29 70 37 34 12 67 38 127 99 45 47 81 92 81 103 0 11 11
30 24 42 15 14 22 30 20 44 -2 12 -2 16 2 10 3 -7 10 -13 15 -13 21 0 7 27
-26 49 -19 13 -35 27 -35 32 0 5 -8 9 -18 9 -10 0 -23 5 -29 11 -16 16 -88 7
-88 -11 0 -9 11 -16 25 -18 14 -1 36 -5 50 -8 l24 -5 -31 -15 c-16 -8 -36 -25
-42 -38 -10 -17 -19 -21 -42 -18 -17 2 -29 10 -29 19 0 8 -7 21 -15 30 -20 19
-48 9 -41 -15 6 -17 0 -17 -80 -10 -139 12 -238 28 -244 39 -4 5 -33 10 -65
10 -38 1 -53 4 -44 10 8 5 46 8 84 8 99 -3 207 11 202 25 -4 13 -32 15 -177
16 -61 0 -106 -4 -108 -10 -2 -5 -19 -10 -38 -10 -37 0 -42 -7 -19 -24 30 -22
0 -39 -79 -44 l-76 -5 0 32 c0 24 -4 31 -20 31 -11 0 -20 7 -20 15 0 8 -9 15
-20 15 -11 0 -20 6 -20 13 0 15 -68 37 -135 44 -72 7 -336 -12 -344 -25 -4 -7
-62 -13 -146 -16 -99 -4 -163 -11 -220 -27 -114 -31 -139 -34 -95 -12 58 29
83 50 70 58 -8 5 -2 14 17 26 l28 19 -25 -1 c-14 0 -84 -20 -155 -42z m1 -103
c-32 -28 -43 -26 -26 5 6 12 20 21 33 21 21 -1 21 -2 -7 -26z m1967 -45 c-5
-16 -8 -18 -14 -7 -5 7 -9 21 -9 32 0 15 3 16 14 7 8 -7 12 -21 9 -32z m-129
-129 c-4 -8 -7 -22 -8 -30 -4 -33 -16 -40 -36 -22 -25 21 -25 27 2 70 20 33
22 34 35 16 7 -10 11 -25 7 -34z"/>
<path d="M2690 8192 c0 -17 70 -36 83 -23 14 14 9 17 -40 26 -27 4 -43 3 -43
-3z"/>
<path d="M3227 8194 c-18 -18 -1 -24 69 -24 56 0 75 3 72 13 -5 13 -129 23
-141 11z"/>
<path d="M1380 7857 c0 -37 25 -75 73 -111 58 -43 146 -90 154 -82 10 9 -6 22
-64 52 -58 29 -143 106 -143 130 0 7 -4 16 -10 19 -5 3 -10 0 -10 -8z"/>
<path d="M2528 7318 c-16 -5 -28 -16 -28 -23 0 -17 -48 -48 -66 -41 -7 3 -20
-5 -29 -17 -8 -12 -15 -17 -15 -12 0 6 -11 -10 -24 -35 -13 -25 -29 -44 -35
-42 -7 1 -11 -23 -11 -73 0 -70 -1 -75 -21 -75 -21 0 -21 -2 -14 -107 4 -60
13 -121 20 -138 8 -16 21 -57 30 -90 9 -33 20 -69 25 -80 5 -11 11 -36 13 -55
3 -19 14 -78 25 -130 11 -52 28 -142 37 -200 19 -122 62 -224 118 -284 20 -21
37 -41 37 -44 0 -3 7 -10 17 -17 14 -10 16 -35 17 -166 1 -128 5 -160 20 -189
10 -19 23 -45 29 -57 7 -13 15 -23 19 -23 5 0 8 -7 8 -15 0 -15 11 -18 60 -17
38 1 56 7 74 21 9 7 16 10 16 6 0 -23 61 81 69 118 12 51 14 193 5 297 -3 41
-6 91 -6 110 1 33 -10 50 -34 50 -10 0 2 -65 32 -165 4 -11 -8 0 -25 25 -17
25 -31 57 -31 72 0 41 -10 58 -35 58 -22 0 -23 4 -27 103 -3 56 -8 111 -12
122 -3 11 2 3 11 -18 l18 -37 0 152 c0 106 -3 152 -11 151 -8 -1 -11 32 -12
102 -1 78 -5 111 -16 127 -15 21 -16 21 -17 3 -1 -11 -7 7 -15 40 -11 52 -11
72 3 145 17 94 32 370 21 370 -5 0 -8 13 -8 28 0 27 -4 30 -69 45 -77 19 -123
20 -163 5z"/>
<path d="M2836 6985 c-10 -26 -7 -397 3 -391 16 10 24 80 25 240 1 110 -2 160
-10 163 -6 2 -14 -3 -18 -12z"/>
<path d="M2135 6801 c-10 -17 31 -318 42 -308 2 3 0 40 -6 82 -6 42 -11 112
-11 156 0 71 -9 96 -25 70z"/>
<path d="M2224 6758 c4 -13 19 -71 34 -130 28 -113 49 -144 39 -58 -11 89 -48
210 -64 210 -11 0 -13 -6 -9 -22z"/>
<path d="M17655 6703 c-42 -51 -105 -146 -100 -152 3 -2 6 -2 8 0 1 2 20 31
41 64 64 101 70 105 145 106 65 1 66 2 21 10 -72 12 -83 10 -115 -28z"/>
<path d="M17871 6726 c2 -2 15 -9 29 -15 24 -11 24 -11 6 3 -16 13 -49 24 -35
12z"/>
<path d="M17850 6706 c68 -26 75 -27 40 -7 -19 11 -44 20 -55 20 -12 0 -7 -5
15 -13z"/>
<path d="M18082 6623 c49 -48 97 -107 124 -153 24 -41 44 -66 44 -56 0 56
-193 286 -240 286 -4 0 28 -35 72 -77z"/>
<path d="M17579 6653 l-24 -28 28 24 c25 23 32 31 24 31 -2 0 -14 -12 -28 -27z"/>
<path d="M17504 6319 c2 -79 6 -92 37 -144 19 -31 72 -93 117 -138 l84 -81
-27 -22 c-24 -19 -26 -24 -14 -45 6 -13 19 -30 26 -38 8 -8 12 -23 9 -33 -6
-25 3 -50 15 -42 13 8 10 74 -6 119 -8 21 -13 41 -11 42 2 2 15 -6 29 -17 36
-29 93 -51 111 -44 23 9 20 19 -11 33 -64 29 -162 103 -221 165 -98 105 -113
133 -128 239 l-13 92 3 -86z"/>
<path d="M18265 6360 c3 -14 8 -42 11 -63 4 -20 11 -40 16 -43 12 -8 0 62 -18
101 -12 26 -13 26 -9 5z"/>
<path d="M2900 6177 c0 -6 97 -107 103 -107 15 0 6 29 -23 68 -21 30 -37 42
-55 42 -14 0 -25 -1 -25 -3z"/>
<path d="M3035 6170 c-6 -10 32 -23 56 -20 8 2 41 2 73 1 l59 -1 -5 -115 c-3
-71 -10 -121 -18 -130 -16 -19 -15 -277 1 -440 6 -60 11 -230 10 -377 -1 -154
3 -269 8 -273 8 -5 13 42 23 215 1 19 -2 130 -7 245 -16 371 -8 771 17 822 6
12 8 28 5 36 -3 9 2 19 11 23 12 5 -1 10 -38 15 -82 11 -188 10 -195 -1z"/>
<path d="M18250 6038 c-15 -21 -17 -28 -6 -19 16 13 41 51 33 51 -2 0 -14 -15
-27 -32z"/>
<path d="M18082 5918 c-34 -22 -39 -28 -19 -28 14 1 62 38 56 45 -3 2 -19 -5
-37 -17z"/>
<path d="M17970 5870 c-12 -8 -9 -10 12 -10 15 0 30 5 33 10 8 13 -25 13 -45
0z"/>
<path d="M17901 5733 c-22 -90 -22 -88 -4 -70 24 24 44 107 27 107 -7 0 -17
-17 -23 -37z"/>
<path d="M3281 5673 c0 -52 3 -95 9 -98 12 -8 13 92 1 150 -7 33 -9 24 -10
-52z"/>
<path d="M17748 5543 c-1 -27 -1 -68 2 -93 l5 -45 8 64 c9 85 9 121 -2 121 -5
0 -11 -21 -13 -47z"/>
<path d="M17832 5403 c-25 -120 -26 -133 -13 -133 7 0 24 76 41 193 12 87 -6
48 -28 -60z"/>
<path d="M8972 5322 c-38 -32 -73 -89 -44 -73 28 15 85 78 81 90 -2 5 -19 -2
-37 -17z"/>
<path d="M17735 5319 c-15 -24 -35 -149 -35 -221 0 -63 -3 -78 -15 -78 -11 0
-15 -12 -15 -47 -1 -27 -7 -104 -14 -172 -7 -69 -10 -136 -7 -149 4 -15 11 16
20 87 7 61 22 148 33 194 11 45 23 138 28 207 5 69 12 140 16 158 6 32 1 42
-11 21z"/>
<path d="M18216 5317 c-14 -10 -17 -25 -14 -72 3 -52 6 -61 29 -74 23 -13 30
-12 71 7 24 12 50 22 56 22 26 0 10 33 -38 80 -52 52 -74 59 -104 37z"/>
<path d="M17806 5162 c-9 -27 -21 -74 -26 -103 -17 -99 -40 -272 -36 -276 4
-5 46 176 46 200 0 11 9 64 20 119 12 55 19 102 16 105 -2 2 -11 -18 -20 -45z"/>
<path d="M10067 4900 c-37 -34 -48 -52 -45 -69 3 -23 5 -22 52 20 37 34 47 50
45 69 -4 25 -5 24 -52 -20z"/>
<path d="M6444 4905 c-10 -8 -14 -15 -8 -15 6 0 17 7 24 15 16 19 9 19 -16 0z"/>
<path d="M5775 4775 c18 -30 65 -98 114 -165 l25 -35 -28 25 c-15 14 -53 59
-84 100 -31 41 -60 80 -65 85 -11 11 41 -83 56 -102 6 -9 6 -13 -1 -13 -5 0
-12 6 -15 14 -5 12 -13 12 -52 -3 -80 -30 -110 -110 -107 -286 1 -84 -1 -104
-9 -85 -20 48 -49 216 -49 285 0 81 -19 128 -21 55 -2 -34 -3 -38 -6 -15 -3
17 -9 35 -15 40 -7 7 -9 -2 -4 -30 4 -22 11 -67 16 -100 17 -112 60 -300 70
-303 14 -5 12 -70 -2 -75 -10 -3 -10 -9 -2 -24 7 -11 15 -58 19 -106 4 -48 11
-87 16 -87 5 0 9 5 9 10 0 6 7 10 15 10 11 0 15 12 15 52 0 51 0 51 20 33 18
-17 20 -17 14 -2 -9 23 9 21 31 -3 13 -14 14 -20 5 -20 -7 0 -10 -3 -7 -6 11
-12 79 47 73 63 -4 9 12 33 42 62 30 30 70 91 111 167 35 65 83 148 106 184
43 66 79 130 72 130 -2 0 -26 -28 -53 -62 -26 -35 -51 -65 -54 -68 -3 -3 -18
-24 -33 -48 -16 -24 -42 -57 -58 -74 -29 -30 -40 -56 -18 -42 8 4 8 0 0 -15
-13 -24 -26 -29 -17 -6 10 26 -23 16 -41 -12 -10 -16 -23 -34 -30 -41 -7 -7
-13 -20 -13 -27 0 -26 -30 -43 -90 -50 -34 -4 -63 -6 -65 -4 -2 2 -6 22 -10
44 l-8 40 26 -25 c56 -55 55 -55 93 -15 25 26 34 46 34 70 0 24 5 34 20 38 16
4 20 14 20 46 0 34 3 41 20 41 15 0 20 7 20 25 0 18 -5 25 -20 25 -11 0 -20 5
-20 10 0 6 9 10 20 10 17 0 20 7 20 38 0 33 3 38 21 38 12 -1 36 -16 54 -33
31 -31 55 -42 55 -25 0 4 -23 30 -51 57 -28 28 -81 88 -117 135 -74 97 -94
118 -67 75z m85 -185 c9 -16 8 -20 -5 -20 -8 0 -15 9 -15 20 0 11 2 20 5 20 2
0 9 -9 15 -20z m-30 -429 c-11 -21 -30 -37 -30 -25 0 8 30 44 37 44 2 0 -1 -9
-7 -19z"/>
<path d="M6279 4773 c-13 -16 -12 -17 4 -4 9 7 17 15 17 17 0 8 -8 3 -21 -13z"/>
<path d="M7510 4743 c-31 -28 -47 -49 -40 -53 6 -4 8 -15 4 -25 -7 -18 -5 -17
22 2 41 30 94 96 94 118 0 17 -35 -1 -80 -42z"/>
<path d="M3211 4721 c-1 -44 2 -62 9 -55 7 7 7 29 1 65 l-9 54 -1 -64z"/>
<path d="M6210 4705 c-24 -25 -39 -45 -33 -45 10 0 83 74 83 85 0 10 -6 5 -50
-40z"/>
<path d="M3035 4633 c-11 -3 -22 -9 -25 -13 -3 -4 -20 -15 -37 -24 -18 -9 -33
-21 -33 -27 0 -6 -11 -20 -25 -31 -14 -11 -25 -26 -25 -33 0 -8 -6 -18 -13
-22 -14 -9 -126 -137 -175 -201 -62 -79 -70 -122 -63 -302 10 -250 27 -336 73
-368 10 -8 26 -22 36 -31 9 -10 27 -24 40 -30 14 -7 22 -21 22 -36 0 -14 4
-25 9 -25 8 0 69 44 104 74 9 9 17 13 17 9 1 -5 19 28 42 72 22 44 52 94 68
110 58 63 68 99 74 250 2 77 10 165 17 195 14 65 6 276 -12 330 -15 42 -56
110 -67 109 -4 -1 -16 -4 -27 -6z"/>
<path d="M17636 4591 c-3 -4 -5 -82 -5 -172 1 -100 -3 -175 -10 -193 -11 -28
-13 -28 -66 -21 -37 4 -55 3 -55 -4 0 -7 23 -11 55 -11 52 0 55 -1 55 -26 0
-21 -3 -24 -21 -19 -57 18 -232 115 -244 135 -3 6 -15 10 -26 10 -20 0 -93 41
-104 60 -3 5 -16 8 -28 5 -12 -3 -40 4 -62 14 l-40 19 49 1 c79 1 50 8 -68 15
-117 6 -132 2 -46 -14 67 -13 195 -64 272 -107 31 -18 61 -33 67 -33 6 0 20
-9 31 -20 24 -24 107 -67 179 -91 69 -24 68 -24 63 11 -3 24 -1 30 14 31 11 0
14 3 8 5 -8 3 -10 64 -6 209 4 189 3 220 -12 196z"/>
<path d="M3252 4550 c0 -25 4 -58 8 -75 6 -25 8 -20 8 25 0 30 -3 64 -8 75 -6
15 -8 9 -8 -25z"/>
<path d="M9013 4507 c-33 -31 -36 -36 -20 -43 25 -9 87 50 70 67 -8 8 -21 2
-50 -24z"/>
<path d="M17694 4388 c4 -46 9 -122 13 -170 l6 -86 -29 -15 c-32 -16 -124
-110 -124 -126 0 -5 7 -11 15 -15 8 -3 15 -11 15 -18 0 -7 10 -19 21 -26 19
-12 26 -10 60 18 l39 31 2 -123 c1 -118 1 -120 10 -58 9 63 13 128 11 180 -4
95 -8 238 -8 307 0 44 -3 79 -7 76 -5 -2 -8 21 -8 51 0 36 -4 56 -11 56 -9 0
-10 -23 -5 -82z"/>
<path d="M11400 4424 c-22 -20 -37 -40 -34 -45 7 -12 30 1 79 45 36 31 38 35
18 36 -13 0 -41 -16 -63 -36z"/>
<path d="M16425 4300 c4 -6 11 -8 16 -5 14 9 11 15 -7 15 -8 0 -12 -5 -9 -10z"/>
<path d="M16718 4303 c6 -2 18 -2 25 0 6 3 1 5 -13 5 -14 0 -19 -2 -12 -5z"/>
<path d="M16768 4293 c7 -3 16 -2 19 1 4 3 -2 6 -13 5 -11 0 -14 -3 -6 -6z"/>
<path d="M17053 4233 c26 -2 68 -2 95 0 26 2 4 3 -48 3 -52 0 -74 -1 -47 -3z"/>
<path d="M16625 4215 c46 -15 104 -19 90 -6 -6 5 -37 11 -70 14 l-60 5 40 -13z"/>
<path d="M13135 4175 c-25 -21 -34 -34 -24 -35 8 0 30 16 49 35 44 45 27 45
-25 0z"/>
<path d="M16860 4183 c8 -3 22 -11 30 -18 16 -14 87 -29 185 -41 33 -4 71 -9
85 -11 14 -2 63 -8 110 -13 47 -5 96 -12 110 -16 16 -3 21 -2 15 4 -5 5 -53
14 -105 20 -125 15 -378 60 -401 72 -10 6 -24 10 -31 9 -9 0 -8 -2 2 -6z"/>
<path d="M17420 4073 c8 -3 30 -14 47 -24 33 -18 33 -18 21 1 -7 11 -17 20
-23 20 -5 0 -21 3 -35 5 -14 3 -18 2 -10 -2z"/>
<path d="M17520 4016 c0 -2 7 -9 15 -16 9 -7 15 -8 15 -2 0 5 -7 12 -15 16 -8
3 -15 4 -15 2z"/>
<path d="M14217 3809 c-20 -16 -39 -39 -43 -52 -3 -12 -20 -36 -36 -53 -26
-28 -28 -35 -18 -54 6 -12 9 -24 6 -27 -3 -3 2 -12 10 -20 10 -11 13 -25 8
-46 -5 -25 -4 -29 10 -24 11 5 16 1 16 -13 0 -11 4 -20 9 -20 9 0 22 -46 27
-99 2 -19 5 -40 8 -47 3 -8 -2 -27 -12 -43 -19 -34 -8 -56 14 -27 16 23 19 42
34 211 15 178 20 334 11 339 -4 3 -24 -8 -44 -25z"/>
<path d="M17604 3720 c0 -69 1 -97 3 -62 2 34 2 90 0 125 -2 34 -3 6 -3 -63z"/>
<path d="M8755 3629 c-37 -36 -44 -47 -32 -52 19 -7 74 28 96 63 9 13 11 21 4
17 -6 -4 -13 -2 -15 5 -3 8 -24 -6 -53 -33z"/>
<path d="M17716 3600 c8 -56 14 -64 14 -19 0 19 -5 41 -10 49 -7 10 -8 1 -4
-30z"/>
<path d="M12785 3586 c-39 -17 -80 -62 -66 -71 6 -3 32 14 58 39 52 50 53 52
8 32z"/>
<path d="M5776 3551 c-29 -30 -28 -44 4 -61 15 -8 26 -4 55 22 l37 32 -24 18
c-31 24 -40 23 -72 -11z"/>
<path d="M6925 3430 c-3 -6 1 -7 9 -4 18 7 21 14 7 14 -6 0 -13 -4 -16 -10z"/>
<path d="M3615 3398 c-26 -21 -27 -22 -8 -37 10 -9 26 -26 36 -38 l19 -21 -40
19 c-50 25 -112 36 -112 20 0 -6 10 -11 23 -11 42 0 124 -49 147 -87 12 -21
26 -33 34 -30 7 3 19 0 25 -6 6 -6 14 -8 17 -4 8 8 -127 177 -141 177 -21 0
21 20 43 20 13 0 20 4 17 10 -10 16 -30 12 -60 -12z"/>
<path d="M10045 3375 c-28 -25 -41 -42 -30 -37 11 5 29 6 40 1 35 -13 50 -10
85 21 34 29 34 30 16 45 -32 25 -59 17 -111 -30z"/>
<path d="M3373 3357 c-65 -11 -85 -27 -35 -27 44 0 142 22 142 31 0 10 -22 10
-107 -4z"/>
<path d="M6803 3318 c3 -24 24 -122 48 -218 23 -96 43 -185 45 -198 3 -13 9
-20 14 -17 14 8 17 -7 24 -95 7 -88 -4 -78 -28 26 -26 119 -37 131 -30 34 3
-47 7 -98 9 -115 2 -16 6 -65 9 -107 4 -60 10 -82 26 -98 19 -19 21 -19 27 -3
6 15 7 15 14 -3 4 -10 8 -35 8 -56 1 -29 -5 -42 -31 -63 -33 -28 -33 -29 -45
-159 -17 -191 -24 -237 -38 -242 -7 -3 -10 -14 -8 -25 3 -11 -5 -36 -21 -59
-31 -48 -32 -50 -6 -50 19 0 20 -7 20 -105 0 -98 -1 -105 -20 -105 -19 0 -20
-7 -20 -181 0 -160 2 -180 15 -169 12 10 15 10 15 -4 0 -9 -7 -16 -15 -16 -8
0 -15 -7 -15 -15 0 -8 9 -15 20 -15 17 0 20 -7 20 -44 l0 -44 63 -11 c79 -14
124 -14 132 -1 3 6 15 10 26 10 10 0 19 5 19 10 0 6 9 10 20 10 11 0 20 5 20
10 0 6 9 10 20 10 16 0 20 7 20 35 0 27 4 35 18 35 17 0 20 13 25 137 16 327
1 673 -30 673 -10 0 -13 42 -13 216 0 119 3 214 8 212 4 -1 24 -14 44 -28 40
-26 52 -48 17 -30 -19 10 -20 10 -10 -8 6 -11 16 -22 22 -24 6 -2 16 -38 22
-81 13 -89 27 -101 27 -23 0 39 4 55 15 60 23 8 20 243 -5 361 -10 50 -18 74
-17 55 0 -19 -2 -40 -5 -46 -4 -6 -3 -40 2 -77 10 -68 5 -102 -12 -91 -6 4 -2
-6 8 -22 18 -27 18 -28 1 -21 -10 4 -21 7 -23 7 -2 0 -4 9 -4 20 0 12 -7 34
-14 49 -8 15 -18 51 -22 79 -7 58 -24 70 -25 20 0 -21 -11 7 -29 77 -40 154
-56 201 -62 185 -3 -9 -11 4 -21 30 -10 30 -16 38 -16 23 -1 -17 -7 -23 -23
-23 -45 0 -67 -12 -73 -39 -3 -14 -14 -37 -24 -49 -17 -24 -18 -23 -54 110
-43 155 -67 261 -67 301 0 15 -5 27 -11 27 -8 0 -10 -14 -6 -42z m392 -705 c8
-3 15 -12 15 -19 0 -12 -4 -12 -25 2 -19 13 -25 24 -24 53 l1 36 9 -33 c6 -18
16 -35 24 -39z m6 -80 c13 -16 12 -17 -3 -4 -10 7 -18 15 -18 17 0 8 8 3 21
-13z m-247 -200 c-2 -119 -23 -211 -45 -197 -12 7 -2 184 12 222 15 40 34 26
33 -25z"/>
<path d="M2275 3340 c3 -5 8 -10 11 -10 2 0 4 5 4 10 0 6 -5 10 -11 10 -5 0
-7 -4 -4 -10z"/>
<path d="M17790 3331 c0 -5 7 -15 17 -22 15 -13 15 -12 4 9 -12 23 -21 28 -21
13z"/>
<path d="M3898 3270 c-9 -17 -38 -40 -65 -53 -26 -13 -57 -28 -68 -34 -11 -6
-55 -28 -98 -49 -43 -21 -74 -40 -69 -42 10 -3 35 9 207 95 76 39 121 79 114
102 -2 6 -12 -3 -21 -19z"/>
<path d="M2344 3160 c0 -74 1 -105 3 -67 2 37 2 97 0 135 -2 37 -3 6 -3 -68z"/>
<path d="M17538 3264 c-5 -4 -8 -16 -8 -28 0 -14 3 -17 11 -9 6 6 9 19 7 28
-1 9 -6 13 -10 9z"/>
<path d="M17691 3208 c2 -2 20 -16 39 -33 l35 -30 -29 33 c-17 17 -34 32 -40
32 -5 0 -7 -1 -5 -2z"/>
<path d="M17532 3180 c0 -14 2 -19 5 -12 2 6 2 18 0 25 -3 6 -5 1 -5 -13z"/>
<path d="M4011 3158 c6 -13 19 -30 29 -38 9 -8 25 -36 34 -62 19 -51 50 -97
60 -87 4 3 -4 26 -18 50 -13 24 -31 65 -41 92 -10 26 -24 47 -31 47 -8 0 -14
5 -14 10 0 6 -7 10 -15 10 -13 0 -14 -4 -4 -22z"/>
<path d="M7050 3099 c0 -25 4 -36 15 -36 11 0 13 6 9 21 -14 46 -23 52 -24 15z"/>
<path d="M17781 3074 c0 -11 3 -14 6 -6 3 7 2 16 -1 19 -3 4 -6 -2 -5 -13z"/>
<path d="M4040 3053 c0 -11 88 -132 130 -178 15 -16 31 -39 34 -51 3 -11 20
-33 36 -49 27 -26 30 -27 30 -9 0 11 -16 36 -36 55 -20 18 -70 79 -111 134
-89 118 -83 111 -83 98z"/>
<path d="M17789 2945 c-4 -55 -10 -113 -13 -130 -3 -16 1 -10 9 15 10 30 15
74 13 130 l-3 85 -6 -100z"/>
<path d="M14157 2975 c-49 -158 -50 -163 -43 -219 7 -52 5 -61 -28 -123 -20
-37 -36 -73 -36 -80 0 -25 24 -64 37 -59 14 6 19 -11 27 -99 3 -33 8 -70 10
-82 4 -20 23 -242 29 -337 1 -22 8 -41 15 -44 11 -3 13 28 8 169 -2 96 -8 203
-11 239 l-7 65 21 -30 21 -30 0 248 c0 177 -3 247 -11 247 -8 0 -10 16 -6 48
3 26 2 70 -1 97 l-7 50 -18 -60z"/>
<path d="M14047 3013 c-11 -10 -8 -123 2 -123 5 0 11 29 13 65 3 62 0 73 -15
58z"/>
<path d="M5873 2968 c-48 -35 -53 -52 -23 -68 11 -6 18 -15 15 -20 -6 -9 91
-220 100 -220 2 0 2 7 -1 15 -4 8 -1 22 6 30 14 17 70 20 70 4 0 -5 4 -8 9 -5
4 3 11 -34 14 -82 4 -66 14 -111 41 -187 47 -129 85 -270 93 -348 4 -34 6
-149 4 -254 -2 -190 -2 -193 18 -193 20 0 21 -5 21 -105 0 -98 1 -105 20 -105
15 0 20 -7 20 -26 0 -17 6 -28 20 -31 11 -3 20 -12 20 -19 0 -8 9 -14 20 -14
11 0 20 -4 20 -10 0 -5 9 -10 20 -10 11 0 20 -4 20 -9 0 -5 18 -12 40 -16 l40
-7 0 -48 c0 -58 4 -60 121 -67 118 -8 159 1 159 32 0 14 -7 25 -17 28 -17 4
-17 5 0 6 15 1 17 15 17 141 0 133 -1 140 -20 140 -11 0 -20 6 -20 14 0 8 -5
16 -12 18 -8 3 -13 58 -17 180 -3 97 -8 178 -11 180 -3 2 -18 11 -35 20 -19
11 -30 25 -29 38 0 11 -2 20 -6 20 -4 0 -15 28 -25 63 -16 57 -84 231 -123
317 -8 19 -18 49 -22 65 -4 20 -13 31 -26 33 -20 3 -44 54 -44 95 0 8 -13 49
-30 90 -25 63 -34 95 -39 148 -1 4 -10 9 -20 12 -15 3 -18 1 -14 -12 9 -24
-10 -3 -36 42 l-23 37 35 0 c20 0 37 -5 39 -11 2 -7 8 -6 17 4 20 25 -14 36
-123 41 -60 3 -103 10 -113 18 -9 7 -18 12 -20 11 -1 -2 -6 -3 -10 -3 -5 0 -2
4 6 9 9 6 -7 15 -52 30 -37 11 -67 21 -69 21 -2 -1 -22 -15 -45 -32z m318
-105 c13 -16 12 -17 -3 -4 -10 7 -18 15 -18 17 0 8 8 3 21 -13z m-63 -28 c17
-14 34 -25 40 -25 11 0 10 -25 -1 -36 -3 -4 -21 4 -39 18 -18 14 -50 28 -70
32 -57 10 -47 33 14 35 15 1 40 -10 56 -24z m33 8 c13 -16 12 -17 -3 -4 -10 7
-18 15 -18 17 0 8 8 3 21 -13z m265 -477 c3 -8 11 -13 18 -10 14 5 64 -102 53
-113 -10 -10 -85 60 -86 80 -1 10 -6 27 -11 38 -9 15 -7 19 5 19 9 0 18 -6 21
-14z m87 -188 c9 -18 23 -62 33 -98 9 -36 28 -90 42 -120 28 -58 31 -70 24
-83 -7 -13 -52 34 -74 78 -33 64 -77 228 -66 243 16 19 24 15 41 -20z m107
-428 c0 -5 -4 -10 -10 -10 -5 0 -10 5 -10 10 0 6 5 10 10 10 6 0 10 -4 10 -10z"/>
<path d="M1305 2903 c-4 -26 -9 -56 -12 -65 -2 -10 0 -18 5 -18 9 0 25 121 17
128 -2 2 -6 -18 -10 -45z"/>
<path d="M1336 2942 c-3 -5 -9 -42 -14 -84 -6 -41 -17 -87 -27 -101 -9 -15
-15 -32 -13 -39 10 -28 40 45 49 114 5 40 11 83 14 96 5 22 1 29 -9 14z"/>
<path d="M16859 2860 c-30 -27 -39 -39 -27 -40 9 0 18 -9 20 -20 3 -18 6 -17
42 13 33 28 38 37 32 60 -3 15 -10 27 -15 27 -5 0 -28 -18 -52 -40z"/>
<path d="M7267 2869 c4 -13 8 -18 11 -10 2 7 -1 18 -6 23 -8 8 -9 4 -5 -13z"/>
<path d="M17492 2830 c0 -14 2 -19 5 -12 2 6 2 18 0 25 -3 6 -5 1 -5 -13z"/>
<path d="M17661 2708 c0 -79 4 -152 8 -162 4 -11 8 51 9 137 1 91 -3 159 -8
162 -6 4 -10 -48 -9 -137z"/>
<path d="M18758 2791 c-42 -39 -43 -40 -23 -55 28 -21 31 -20 70 17 l35 32
-20 23 -19 23 -43 -40z"/>
<path d="M13915 2746 c-5 -22 -2 -89 5 -152 7 -61 10 -119 6 -129 -4 -11 -2
-15 6 -12 15 5 15 268 -1 308 -8 23 -9 22 -16 -15z"/>
<path d="M1200 2698 c-15 -21 -17 -28 -6 -19 16 13 41 51 33 51 -2 0 -14 -15
-27 -32z"/>
<path d="M3855 2715 c-59 -13 -228 -75 -242 -88 -3 -4 16 -6 43 -6 27 1 38 4
25 6 -20 4 -11 10 47 33 96 37 148 49 262 59 l95 8 -85 1 c-47 0 -112 -6 -145
-13z"/>
<path d="M1189 2593 c-13 -16 -12 -17 4 -4 9 7 17 15 17 17 0 8 -8 3 -21 -13z"/>
<path d="M1103 2558 c-20 -26 -26 -41 -15 -34 12 7 36 46 29 46 -3 0 -9 -6
-14 -12z"/>
<path d="M4397 2480 c7 -25 23 -37 23 -17 0 8 -6 20 -14 26 -12 10 -13 8 -9
-9z"/>
<path d="M13977 2474 c-8 -8 3 -34 14 -34 5 0 9 9 9 20 0 19 -11 26 -23 14z"/>
<path d="M1804 2436 c12 -10 37 -15 60 -15 l41 2 -45 6 c-25 4 -52 10 -60 15
-8 4 -6 0 4 -8z"/>
<path d="M18174 2405 l-39 -33 23 -22 22 -21 30 21 c47 33 54 55 26 73 -23 15
-26 14 -62 -18z"/>
<path d="M4414 2405 c4 -41 31 -91 40 -76 4 6 0 18 -8 27 -9 8 -16 23 -16 32
0 9 -5 24 -10 32 -7 11 -9 7 -6 -15z"/>
<path d="M2070 2399 c91 -7 256 -22 388 -35 40 -5 62 -3 62 4 0 6 -50 13 -127
17 -71 4 -157 11 -193 16 -36 5 -101 8 -145 7 l-80 -1 95 -8z"/>
<path d="M13909 2349 c-20 -12 15 -23 37 -11 15 8 14 10 -4 14 -11 3 -26 2
-33 -3z"/>
<path d="M3181 2335 c-18 -8 -42 -15 -53 -15 -10 0 -17 -4 -14 -9 6 -9 64 0
87 15 8 4 32 11 54 15 l40 6 -40 1 c-22 1 -55 -5 -74 -13z"/>
<path d="M1600 2336 c-3 -2 -27 -7 -55 -10 -117 -12 -123 -16 -145 -70 -7 -19
-18 -32 -23 -29 -6 4 -8 -3 -5 -15 4 -12 3 -22 -1 -22 -16 0 7 -98 34 -150 31
-55 118 -152 167 -184 16 -10 35 -15 44 -12 9 4 24 0 33 -8 22 -19 113 -7 222
29 98 33 159 84 159 135 0 19 -5 30 -14 30 -8 0 -18 10 -21 21 -6 18 -54 73
-157 181 -10 10 -18 21 -18 24 0 9 -30 36 -30 27 0 -4 -4 -3 -8 3 -14 22 -87
51 -132 53 -25 1 -48 0 -50 -3z"/>
<path d="M14047 2163 c-3 -71 -1 -132 3 -137 14 -14 18 8 24 142 5 100 4 122
-7 122 -11 0 -15 -28 -20 -127z"/>
<path d="M4460 2264 c0 -8 5 -12 10 -9 6 4 8 11 5 16 -9 14 -15 11 -15 -7z"/>
<path d="M4495 2153 c4 -21 13 -74 19 -118 10 -67 10 -81 -2 -83 -11 -3 -11
-6 1 -15 8 -7 17 -28 21 -47 l6 -34 -32 29 -31 30 31 -40 c19 -25 33 -57 37
-85 4 -25 12 -72 20 -105 19 -87 26 -157 16 -150 -6 3 -2 -12 7 -34 9 -22 20
-37 24 -34 5 2 4 12 -1 21 -13 26 -25 151 -12 132 13 -18 14 -5 2 18 -14 28
-24 95 -12 88 6 -4 4 9 -4 28 -8 20 -15 50 -15 68 0 26 -3 30 -11 18 -8 -11
-9 -6 -7 22 2 20 0 34 -4 32 -4 -3 -9 14 -10 38 -1 24 -3 57 -3 73 -2 39 -35
185 -42 185 -3 0 -2 -17 2 -37z"/>
<path d="M13984 2028 c10 -150 19 -211 34 -216 17 -5 16 59 -3 131 -8 32 -15
87 -15 122 0 42 -4 65 -11 65 -9 0 -10 -28 -5 -102z"/>
<path d="M7240 1999 c0 -57 5 -110 12 -122 6 -12 16 -57 22 -101 l12 -79 17
27 c15 23 16 35 8 84 l-10 57 2 -52 c1 -28 -1 -49 -4 -47 -12 7 -22 109 -19
201 2 102 -4 133 -26 133 -11 0 -14 -20 -14 -101z"/>
<path d="M4398 2043 c6 -2 18 -2 25 0 6 3 1 5 -13 5 -14 0 -19 -2 -12 -5z"/>
<path d="M7291 1981 c-1 -28 3 -41 8 -35 6 5 6 24 1 44 l-8 35 -1 -44z"/>
<path d="M1003 1925 c0 -22 2 -30 4 -17 2 12 2 30 0 40 -3 9 -5 -1 -4 -23z"/>
<path d="M6717 1930 c7 -27 22 -35 36 -20 9 9 7 15 -7 26 -27 19 -35 18 -29
-6z"/>
<path d="M6140 1885 c-7 -9 -21 -13 -30 -10 -11 3 -20 -1 -24 -10 -4 -11 1
-15 19 -15 13 0 28 -7 33 -16 13 -24 32 -8 32 26 0 35 -13 45 -30 25z"/>
<path d="M1012 1825 c0 -16 2 -22 5 -12 2 9 2 23 0 30 -3 6 -5 -1 -5 -18z"/>
<path d="M4355 1798 c-25 -19 -46 -23 -164 -29 -202 -11 -238 -17 -326 -54
-44 -19 -113 -43 -154 -54 -82 -23 -108 -38 -46 -27 37 7 111 31 258 85 43 16
96 24 220 31 160 9 177 12 247 51 28 15 31 19 14 19 -12 0 -34 -10 -49 -22z"/>
<path d="M6027 1813 c-17 -16 13 -235 36 -258 11 -12 3 103 -14 202 -12 66
-12 67 -22 56z"/>
<path d="M13860 1775 c-14 -17 -31 -95 -20 -95 11 0 28 42 33 78 4 37 4 37
-13 17z"/>
<path d="M2378 1723 c29 -2 74 -2 100 0 26 2 2 3 -53 3 -55 0 -76 -1 -47 -3z"/>
<path d="M2548 1713 c7 -3 16 -2 19 1 4 3 -2 6 -13 5 -11 0 -14 -3 -6 -6z"/>
<path d="M4602 1690 c0 -14 2 -19 5 -12 2 6 2 18 0 25 -3 6 -5 1 -5 -13z"/>
<path d="M998 1555 c-3 -14 -1 -25 3 -25 5 0 9 11 9 25 0 14 -2 25 -4 25 -2 0
-6 -11 -8 -25z"/>
<path d="M1380 1565 c14 -8 32 -14 40 -14 8 0 0 6 -19 14 -42 19 -54 19 -21 0z"/>
<path d="M4561 1564 c0 -11 3 -14 6 -6 3 7 2 16 -1 19 -3 4 -6 -2 -5 -13z"/>
<path d="M1500 1550 l-65 -7 60 -1 c33 -1 67 3 75 8 8 5 11 9 5 8 -5 -1 -39
-4 -75 -8z"/>
<path d="M6026 1324 c-6 -21 -11 -25 -28 -21 -12 3 -31 1 -42 -6 -19 -10 -16
-12 29 -18 55 -6 65 0 65 44 0 34 -16 35 -24 1z"/>
<path d="M5895 1240 c-10 -11 -13 -20 -7 -20 6 0 16 9 22 20 6 11 9 20 7 20
-2 0 -12 -9 -22 -20z"/>
<path d="M6016 1243 c-12 -12 -6 -33 9 -33 8 0 15 6 15 14 0 17 -14 28 -24 19z"/>
<path d="M16215 1076 c-44 -35 -108 -90 -141 -122 -55 -53 -61 -62 -56 -92 2
-17 7 -32 11 -32 11 0 53 31 117 86 34 30 64 50 68 47 3 -3 6 -18 6 -31 0 -37
9 -22 11 19 2 24 13 45 38 72 28 30 36 46 36 77 0 22 -2 40 -5 40 -3 0 -42
-29 -85 -64z"/>
<path d="M4279 841 c-101 -81 -198 -181 -177 -181 9 0 21 -7 26 -15 7 -13 18
-8 67 30 79 61 225 194 225 205 0 5 -8 8 -17 8 -10 0 -25 2 -34 6 -11 5 -39
-11 -90 -53z"/>
<path d="M4310 588 c0 -27 5 -48 10 -48 13 0 13 60 0 80 -7 11 -10 2 -10 -32z"/>
</g>
</svg>
